<svg class="animated" id="freepik_stories-people-watching-the-news" xmlns="http://www.w3.org/2000/svg" viewBox="0 0 500 500" version="1.1" xmlns:xlink="http://www.w3.org/1999/xlink" xmlns:svgjs="http://svgjs.com/svgjs"><style>svg#freepik_stories-people-watching-the-news:not(.animated) .animable {opacity: 0;}svg#freepik_stories-people-watching-the-news.animated #freepik--Television--inject-18 {animation: 1.5s Infinite  linear heartbeat;animation-delay: 0s;}svg#freepik_stories-people-watching-the-news.animated #freepik--Sofa--inject-18 {animation: 1.5s Infinite  linear wind;animation-delay: 0s;}svg#freepik_stories-people-watching-the-news.animated #freepik--Characters--inject-18 {animation: 1.5s Infinite  linear wind;animation-delay: 0s;}            @keyframes heartbeat {                0% {                    transform: scale(1);                }                10% {                    transform: scale(1.1);                }                30% {                    transform: scale(1);                }                40% {                    transform: scale(1);                }                50% {                    transform: scale(1.1);                }                60% {                    transform: scale(1);                }                100% {                    transform: scale(1);                }            }                    @keyframes wind {                0% {                    transform: rotate( 0deg );                }                25% {                    transform: rotate( 1deg );                }                75% {                    transform: rotate( -1deg );                }            }        </style><g id="freepik--background-complete--inject-18" class="animable" style="transform-origin: 258.065px 251.26px;"><rect x="389.37" y="162.9" width="79.47" height="131.54" style="fill: rgb(224, 224, 224); transform-origin: 429.105px 228.67px;" id="el142hgvijpjkr" class="animable"></rect><rect x="386.73" y="162.9" width="79.47" height="131.54" style="fill: rgb(235, 235, 235); transform-origin: 426.465px 228.67px;" id="eli5w9yv9geqc" class="animable"></rect><rect x="390.12" y="165.57" width="72.7" height="126.21" style="fill: rgb(250, 250, 250); transform-origin: 426.47px 228.675px;" id="el9ljamqp6lxm" class="animable"></rect><rect x="403.96" y="181.97" width="44.7" height="93.41" style="fill: rgb(235, 235, 235); transform-origin: 426.31px 228.675px;" id="el2yk84kxnotw" class="animable"></rect><path d="M404,242.32c-.11-8.72,7.74-17.24,16.38-18.46,4.12-.58,8.5.24,12.35-1.34,6.87-2.82,9.05-12,16-14.66l.32,67.52H404Z" style="fill: rgb(224, 224, 224); transform-origin: 426.524px 241.62px;" id="el8tdj7djqmld" class="animable"></path><polyline points="84.5 459.07 84.5 171 80.75 171 80.75 459.13" style="fill: rgb(235, 235, 235); transform-origin: 82.625px 315.065px;" id="elwrtlqcj8cds" class="animable"></polyline><polygon points="61.22 144.6 47.29 206.83 117.96 206.83 102.06 144.79 61.22 144.6" style="fill: rgb(224, 224, 224); transform-origin: 82.625px 175.715px;" id="elu71lyqkbmte" class="animable"></polygon><path d="M74.17,232.05c-.16,0-.28-7.64-.26-17.06s.17-17.06.33-17.06.28,7.64.26,17.06S74.33,232.05,74.17,232.05Z" style="fill: rgb(224, 224, 224); transform-origin: 74.205px 214.99px;" id="ely2o60rhl11" class="animable"></path><path d="M74.14,231.93c0-.07.5,0,.73.64a1.24,1.24,0,0,1-.19,1.13,1.28,1.28,0,0,1-2.23-.82,1.23,1.23,0,0,1,.6-1c.59-.35,1-.06,1,0s-.38,0-.73.34a.91.91,0,0,0-.3.66.79.79,0,0,0,1.28.47.9.9,0,0,0,.19-.7C74.41,232.19,74.1,232,74.14,231.93Z" style="fill: rgb(224, 224, 224); transform-origin: 73.6903px 232.916px;" id="elmz7egeqzxna" class="animable"></path><polygon points="310.92 43.39 310.92 107.65 218.63 107.65 215.3 43.84 310.92 43.39" style="fill: rgb(224, 224, 224); transform-origin: 263.11px 75.52px;" id="el0ks7na2a5yc" class="animable"></polygon><g id="el1jw6fpjete9"><rect x="229.61" y="29.53" width="63.67" height="92.29" style="fill: rgb(255, 255, 255); transform-origin: 261.445px 75.675px; transform: rotate(-90deg);" class="animable"></rect></g><path d="M308,108H214.86V43.4H308Zm-92.29-.88h91.42V44.28H215.74Z" style="fill: rgb(224, 224, 224); transform-origin: 261.43px 75.7px;" id="el5gg2l0x5ryf" class="animable"></path><rect x="225.3" y="51.75" width="72.3" height="47.85" style="fill: rgb(255, 255, 255); transform-origin: 261.45px 75.675px;" id="elewe8in0mknr" class="animable"></rect><path d="M297.6,51.75h-1.39l-4,0-14.9.05-52,.11.21-.21c0,14.62,0,30.82,0,47.84h0l-.23-.23,72.3,0-.18.18c0-14.56.07-26.5.09-34.82,0-4.15,0-7.4.05-9.62,0-1.1,0-1.95,0-2.53s0-.88,0-.88,0,.28,0,.84,0,1.41,0,2.49c0,2.22,0,5.45,0,9.59,0,8.34.06,20.32.1,34.93v.18h-.18l-72.3,0h-.23V99.6h0c0-17,0-33.22,0-47.84v-.21h.21l52.18.1,14.85.06,3.93,0,1,0Z" style="fill: rgb(224, 224, 224); transform-origin: 261.295px 75.61px;" id="elnege81dkzjo" class="animable"></path><path d="M215.3,43.66a8,8,0,0,1,1.59,1c.94.68,2.23,1.65,3.62,2.76s2.61,2.16,3.47,2.95a7.1,7.1,0,0,1,1.32,1.35,61.49,61.49,0,0,1-5.08-4A51.91,51.91,0,0,1,215.3,43.66Z" style="fill: rgb(224, 224, 224); transform-origin: 220.3px 47.69px;" id="elwk1f8gb93is" class="animable"></path><path d="M307.59,43.84A43.6,43.6,0,0,1,302.74,48a43.84,43.84,0,0,1-5.14,3.78,44.26,44.26,0,0,1,4.85-4.14A45.41,45.41,0,0,1,307.59,43.84Z" style="fill: rgb(224, 224, 224); transform-origin: 302.595px 47.81px;" id="elbyga0qlbwu4" class="animable"></path><path d="M307.52,107.52l-10.29-8.34" style="fill: rgb(255, 255, 255); transform-origin: 302.375px 103.35px;" id="el8cdmza0ppvm" class="animable"></path><path d="M297.23,99.18a47.84,47.84,0,0,1,5.29,4,48.76,48.76,0,0,1,5,4.35,47.84,47.84,0,0,1-5.29-4A48.76,48.76,0,0,1,297.23,99.18Z" style="fill: rgb(224, 224, 224); transform-origin: 302.375px 103.355px;" id="el0grf6ph5eack" class="animable"></path><path d="M215.3,107.51a42.86,42.86,0,0,1,4.81-4.09,43,43,0,0,1,5.09-3.73,45.2,45.2,0,0,1-4.81,4.09A43,43,0,0,1,215.3,107.51Z" style="fill: rgb(224, 224, 224); transform-origin: 220.25px 103.6px;" id="eliipqwihffqp" class="animable"></path><polygon points="242.14 89.05 242.14 77.7 263.09 63.05 284.04 78.01 284.04 89.05 242.14 89.05" style="fill: rgb(235, 235, 235); transform-origin: 263.09px 76.05px;" id="el4d9wf23yvqr" class="animable"></polygon><path d="M242.63,77.58s9.27,0,20.69,0,20.7,0,20.7,0-9.27.06-20.7.06S242.63,77.61,242.63,77.58Z" style="fill: rgb(245, 245, 245); transform-origin: 263.325px 77.61px;" id="ele9uypv9qgxg" class="animable"></path><g id="ellvjgjntsib"><g style="opacity: 0.2; transform-origin: 270.465px 84.19px;" class="animable"><polygon points="268.21 79.35 268.21 89.03 272.72 89.03 272.72 79.55 272.72 79.35 268.21 79.35" id="el6jvbjgw7lgj" class="animable" style="transform-origin: 270.465px 84.19px;"></polygon></g></g><g id="elwuaduulauri"><g style="opacity: 0.2; transform-origin: 262.945px 71.215px;" class="animable"><path d="M262.57,62.69l21.32,14.84v2.21L262.94,65.15S242.19,77.69,242,77.7Z" id="elt0wfyw1kpgp" class="animable" style="transform-origin: 262.945px 71.215px;"></path></g></g><path d="M259.05,89.07s0-5.1,0-11.39,0-11.39,0-11.39,0,5.1,0,11.39S259.06,89.07,259.05,89.07Z" style="fill: rgb(245, 245, 245); transform-origin: 259.052px 77.68px;" id="elg3ofll1a8zl" class="animable"></path><path d="M260.49,89s0-5.35,0-11.94,0-11.94,0-11.94,0,5.35,0,11.94S260.5,89,260.49,89Z" style="fill: rgb(245, 245, 245); transform-origin: 260.492px 77.06px;" id="elmqgoldz02n" class="animable"></path><path d="M261.89,89s0-5.56,0-12.42,0-12.42,0-12.42,0,5.56,0,12.42S261.9,89,261.89,89Z" style="fill: rgb(245, 245, 245); transform-origin: 261.892px 76.58px;" id="elv0vf6ddwjle" class="animable"></path><path d="M263.29,89s0-5.75,0-12.84,0-12.85,0-12.85,0,5.75,0,12.85S263.3,89,263.29,89Z" style="fill: rgb(245, 245, 245); transform-origin: 263.292px 76.155px;" id="elb44xxiy7n1" class="animable"></path><path d="M264.69,89s0-5.51,0-12.3,0-12.29,0-12.29,0,5.5,0,12.29S264.7,89,264.69,89Z" style="fill: rgb(245, 245, 245); transform-origin: 264.692px 76.705px;" id="elezlzrbur7z" class="animable"></path><path d="M266.09,89s0-5.35,0-11.94,0-11.94,0-11.94,0,5.35,0,11.94S266.1,89,266.09,89Z" style="fill: rgb(245, 245, 245); transform-origin: 266.092px 77.06px;" id="elbeaaf13lkkq" class="animable"></path><path d="M267.49,89s0-5.09,0-11.37,0-11.37,0-11.37,0,5.09,0,11.37S267.5,89,267.49,89Z" style="fill: rgb(245, 245, 245); transform-origin: 267.492px 77.63px;" id="el8z9bpxgoao8" class="animable"></path><path d="M268.88,89s0-4.86,0-10.84,0-10.84,0-10.84,0,4.85,0,10.84S268.9,89,268.88,89Z" style="fill: rgb(245, 245, 245); transform-origin: 268.884px 78.16px;" id="elaejd3ptwwlc" class="animable"></path><path d="M270.28,89s0-4.62,0-10.32,0-10.32,0-10.32,0,4.62,0,10.32S270.3,89,270.28,89Z" style="fill: rgb(245, 245, 245); transform-origin: 270.284px 78.68px;" id="elc3e8963rg64" class="animable"></path><path d="M271.68,89s0-4.5,0-10,0-10,0-10,0,4.5,0,10S271.7,89,271.68,89Z" style="fill: rgb(245, 245, 245); transform-origin: 271.684px 79px;" id="el7hy6mjmrb9g" class="animable"></path><path d="M273.08,89s0-4.3,0-9.6,0-9.59,0-9.59,0,4.29,0,9.59S273.09,89,273.08,89Z" style="fill: rgb(245, 245, 245); transform-origin: 273.082px 79.405px;" id="elbktpx9kopww" class="animable"></path><path d="M274.48,89s0-4.16,0-9.29,0-9.29,0-9.29,0,4.16,0,9.29S274.49,89,274.48,89Z" style="fill: rgb(245, 245, 245); transform-origin: 274.482px 79.71px;" id="elc1r8rtqol7d" class="animable"></path><path d="M257.7,88.93s0-4.89,0-10.92,0-10.93,0-10.93,0,4.89,0,10.93S257.71,88.93,257.7,88.93Z" style="fill: rgb(245, 245, 245); transform-origin: 257.702px 78.005px;" id="elkf098q4wq3a" class="animable"></path><path d="M256.4,67.68s0,4.78,0,10.68,0,10.69,0,10.69,0-4.79,0-10.69S256.39,67.68,256.4,67.68Z" style="fill: rgb(245, 245, 245); transform-origin: 256.398px 78.365px;" id="elcdyslr3zp1m" class="animable"></path><path d="M255.1,89.05s0-4.65,0-10.38,0-10.39,0-10.39,0,4.65,0,10.39S255.11,89.05,255.1,89.05Z" style="fill: rgb(245, 245, 245); transform-origin: 255.102px 78.665px;" id="eluvffmdhz70e" class="animable"></path><path d="M253.8,89.11s0-4.53,0-10.11,0-10.11,0-10.11,0,4.52,0,10.11S253.81,89.11,253.8,89.11Z" style="fill: rgb(245, 245, 245); transform-origin: 253.802px 79px;" id="el9ypghilfcqc" class="animable"></path><path d="M252.5,89.05s0-4.38,0-9.78,0-9.78,0-9.78,0,4.38,0,9.78S252.52,89.05,252.5,89.05Z" style="fill: rgb(245, 245, 245); transform-origin: 252.504px 79.27px;" id="elx6efdrffg6" class="animable"></path><path d="M251.2,89.05s0-4.25,0-9.48,0-9.48,0-9.48,0,4.25,0,9.48S251.22,89.05,251.2,89.05Z" style="fill: rgb(245, 245, 245); transform-origin: 251.204px 79.57px;" id="ellqr30j667fe" class="animable"></path><path d="M244.6,75.83s0,2.92,0,6.53,0,6.52,0,6.52,0-2.92,0-6.52S244.59,75.83,244.6,75.83Z" style="fill: rgb(245, 245, 245); transform-origin: 244.598px 82.355px;" id="eliq0n7zq4xvq" class="animable"></path><path d="M243.37,75.83s0,2.92,0,6.53,0,6.52,0,6.52,0-2.92,0-6.52S243.36,75.83,243.37,75.83Z" style="fill: rgb(245, 245, 245); transform-origin: 243.368px 82.355px;" id="elqh7ogtbo9a" class="animable"></path><path d="M248.56,88.91s0-3.49,0-7.79,0-7.8,0-7.8,0,3.49,0,7.8S248.57,88.91,248.56,88.91Z" style="fill: rgb(245, 245, 245); transform-origin: 248.562px 81.115px;" id="el44civev01vg" class="animable"></path><path d="M249.92,89s0-3.67-.07-8.19,0-8.18,0-8.18.05,3.66.08,8.18S249.94,89,249.92,89Z" style="fill: rgb(245, 245, 245); transform-origin: 249.882px 80.815px;" id="elvfzyknpuxvi" class="animable"></path><path d="M247.16,89s0-3.26,0-7.28,0-7.28,0-7.28,0,3.26,0,7.28S247.18,89,247.16,89Z" style="fill: rgb(245, 245, 245); transform-origin: 247.164px 81.72px;" id="elhu22nsauyhc" class="animable"></path><path d="M245.88,88.91s0-3,0-6.8,0-6.81,0-6.81,0,3,0,6.81S245.89,88.91,245.88,88.91Z" style="fill: rgb(245, 245, 245); transform-origin: 245.882px 82.105px;" id="el3ufpi27c7hf" class="animable"></path><path d="M275.84,89.05s0-3.9,0-8.69,0-8.7,0-8.7,0,3.89,0,8.7S275.85,89.05,275.84,89.05Z" style="fill: rgb(245, 245, 245); transform-origin: 275.842px 80.355px;" id="elh90ns8ojbfu" class="animable"></path><path d="M277.28,89s0-3.62,0-8.08,0-8.09,0-8.09,0,3.62,0,8.09S277.29,89,277.28,89Z" style="fill: rgb(245, 245, 245); transform-origin: 277.282px 80.915px;" id="elsqgiu0i40ob" class="animable"></path><path d="M278.55,89.05s0-3.44,0-7.68,0-7.67,0-7.67,0,3.43,0,7.67S278.56,89.05,278.55,89.05Z" style="fill: rgb(245, 245, 245); transform-origin: 278.552px 81.375px;" id="el1yu9w9oofs3j" class="animable"></path><path d="M280.11,89.1s0-3.28,0-7.34,0-7.34,0-7.34,0,3.29,0,7.34S280.12,89.1,280.11,89.1Z" style="fill: rgb(245, 245, 245); transform-origin: 280.112px 81.76px;" id="eld3xzkr27zwh" class="animable"></path><path d="M281.76,89.1s0-3,0-6.67,0-6.68,0-6.68,0,3,0,6.68S281.77,89.1,281.76,89.1Z" style="fill: rgb(245, 245, 245); transform-origin: 281.762px 82.425px;" id="elwnuvbtok6hk" class="animable"></path><path d="M283.32,89.1s0-2.73,0-6.11,0-6.11,0-6.11,0,2.74,0,6.11S283.34,89.1,283.32,89.1Z" style="fill: rgb(245, 245, 245); transform-origin: 283.324px 82.99px;" id="elco2g8g6s4h" class="animable"></path><polygon points="284.67 78.58 263.13 63.34 240.9 78.58 240.37 77.73 262.94 61.93 285.22 77.96 284.67 78.58" style="fill: rgb(224, 224, 224); transform-origin: 262.795px 70.255px;" id="el5qla3mrwu2e" class="animable"></polygon><polyline points="267.23 79.35 267.16 89.07 259 89.07 258.95 79.35" style="fill: rgb(245, 245, 245); transform-origin: 263.09px 84.21px;" id="elsrznhgyx2q" class="animable"></polyline><polyline points="258.95 79.35 254.44 79.35 254.44 89.03 258.95 89.03 258.95 79.55" style="fill: rgb(224, 224, 224); transform-origin: 256.695px 84.19px;" id="elud9t3vl9z1" class="animable"></polyline><path d="M259,79.55a.28.28,0,0,0,0,0v.65c0,.47,0,1.13,0,2,0,1.68,0,4,0,6.81v0h-4.61v-.15c0-3.71,0-7.08,0-9.58v0h0l3.3,0h0l-3.3,0,0,0c0,2.5,0,5.87,0,9.58V89l-.06,0H259l-.05,0c0-2.76,0-5.13,0-6.81,0-.84,0-1.5,0-2v-.7Z" style="fill: rgb(224, 224, 224); transform-origin: 256.665px 84.145px;" id="elfo56ps788aw" class="animable"></path><polygon points="267.23 79.35 267.23 89.03 271.74 89.03 271.74 79.55 271.74 79.35 267.23 79.35" style="fill: rgb(224, 224, 224); transform-origin: 269.485px 84.19px;" id="elkh35gc5wvwd" class="animable"></polygon><path d="M267.23,79.35h1.2l3.31,0h0v0c0,2.52,0,5.93,0,9.68l-.05,0h-4.56v0c0-2.82,0-5.25,0-7,0-.85,0-1.53,0-2v-.67a.1.1,0,0,0,0,0v.73c0,.48,0,1.16,0,2,0,1.72,0,4.13,0,6.94l0,0h4.51s-.1.1-.06,0c0-3.75,0-7.16,0-9.68l0,0-3.29,0h-1.22Z" style="fill: rgb(224, 224, 224); transform-origin: 269.405px 84.2122px;" id="elab6nbbr4e1" class="animable"></path><rect x="261.49" y="67.84" width="3.59" height="4.77" style="fill: rgb(245, 245, 245); transform-origin: 263.285px 70.225px;" id="el99snfscf17t" class="animable"></rect><path d="M263.31,72.59s-.05-1.06-.05-2.38,0-2.37.05-2.37.05,1.06.05,2.37S263.34,72.59,263.31,72.59Z" style="fill: rgb(224, 224, 224); transform-origin: 263.31px 70.215px;" id="elp0dx9kfrpbj" class="animable"></path><path d="M265.1,70.13a14.38,14.38,0,0,1-1.81.06,14.61,14.61,0,0,1-1.82-.06,16,16,0,0,1,1.82,0A15.74,15.74,0,0,1,265.1,70.13Z" style="fill: rgb(224, 224, 224); transform-origin: 263.285px 70.1502px;" id="el7n9aphck91n" class="animable"></path><path d="M290.82,89.05c0,.09-12,.17-26.71.17s-26.72-.08-26.72-.17,12-.18,26.72-.18S290.82,89,290.82,89.05Z" style="fill: rgb(224, 224, 224); transform-origin: 264.105px 89.045px;" id="elrxhfe8lcer" class="animable"></path><rect x="390.9" y="60.05" width="72.04" height="75.1" style="fill: rgb(224, 224, 224); transform-origin: 426.92px 97.6px;" id="el8juf587hfw" class="animable"></rect><rect x="386.02" y="60.05" width="72.04" height="75.1" style="fill: rgb(250, 250, 250); transform-origin: 422.04px 97.6px;" id="elvnvrtiz8z9f" class="animable"></rect><path d="M458.09,135.17H386V60h72.09Zm-72,0h72V60.07h-72Z" style="fill: rgb(224, 224, 224); transform-origin: 422.045px 97.585px;" id="el8skaia11a0c" class="animable"></path><rect x="395.71" y="70.15" width="52.67" height="54.91" style="fill: rgb(250, 250, 250); transform-origin: 422.045px 97.605px;" id="elvgytovcswxf" class="animable"></rect><path d="M395.71,125.42a8.86,8.86,0,0,1-1.3,1.51c-.84.89-2,2.09-3.35,3.39s-2.54,2.47-3.44,3.3a9.54,9.54,0,0,1-1.52,1.27,8,8,0,0,1,1.29-1.51c.84-.89,2-2.09,3.35-3.4s2.55-2.47,3.45-3.3A8.48,8.48,0,0,1,395.71,125.42Z" style="fill: rgb(224, 224, 224); transform-origin: 390.905px 130.155px;" id="elgevz8h1uq6b" class="animable"></path><path d="M448.38,125.28a8.43,8.43,0,0,1,1.51,1.3c.89.85,2.09,2,3.4,3.35s2.47,2.55,3.29,3.44a7.79,7.79,0,0,1,1.27,1.53,8.86,8.86,0,0,1-1.51-1.3c-.88-.84-2.09-2-3.4-3.35s-2.47-2.55-3.3-3.45A8.09,8.09,0,0,1,448.38,125.28Z" style="fill: rgb(224, 224, 224); transform-origin: 453.115px 130.09px;" id="elg9cy07y03xe" class="animable"></path><path d="M448.24,70.29a8.86,8.86,0,0,1,1.3-1.51c.84-.89,2-2.09,3.35-3.39s2.54-2.47,3.44-3.3a9,9,0,0,1,1.52-1.27,8.46,8.46,0,0,1-1.29,1.51c-.84.89-2,2.09-3.36,3.4s-2.55,2.47-3.45,3.3A7.76,7.76,0,0,1,448.24,70.29Z" style="fill: rgb(224, 224, 224); transform-origin: 453.045px 65.555px;" id="elyitlgh92lnf" class="animable"></path><path d="M395.56,70.43a8.86,8.86,0,0,1-1.51-1.3c-.89-.84-2.09-2-3.39-3.35s-2.47-2.54-3.3-3.44a7.93,7.93,0,0,1-1.26-1.53,9.59,9.59,0,0,1,1.5,1.3c.89.84,2.09,2,3.4,3.35s2.48,2.55,3.3,3.45A7.61,7.61,0,0,1,395.56,70.43Z" style="fill: rgb(224, 224, 224); transform-origin: 390.83px 65.62px;" id="elh41u3k1ki5a" class="animable"></path><path d="M448.24,125.05a1,1,0,0,1,0-.26c0-.19,0-.44,0-.77,0-.69,0-1.68,0-3,0-2.6,0-6.39-.05-11.19,0-9.62-.06-23.32-.11-39.72l.21.2-52.53,0h0l.23-.23c0,20.15,0,39,0,54.9l-.2-.2,38,.11,10.69.05,2.82,0h1a1,1,0,0,1-.23,0h-.71l-2.79,0-10.64.05-38.16.1h-.2v-.2c0-15.9,0-34.75,0-54.9v-.24h.24l52.53,0h.2v.21c0,16.45-.08,30.2-.1,39.85,0,4.78,0,8.55-.06,11.14,0,1.27,0,2.25,0,2.93,0,.31,0,.56,0,.74A1.76,1.76,0,0,1,448.24,125.05Z" style="fill: rgb(224, 224, 224); transform-origin: 422.055px 97.42px;" id="elnzyhwheitom" class="animable"></path><rect x="413.26" y="88.81" width="17.58" height="17.58" style="fill: rgb(235, 235, 235); transform-origin: 422.05px 97.6px;" id="elsef04764ciq" class="animable"></rect></g><g id="freepik--Plant--inject-18" class="animable" style="transform-origin: 104.077px 83.425px;"><rect x="52.01" y="115.03" width="103.63" height="5.33" style="fill: rgb(69, 90, 100); transform-origin: 103.825px 117.695px;" id="eln501s04wjv" class="animable"></rect><path d="M141.64,66.57a.66.66,0,0,0-.07-.15l-.22-.42c-.21-.36-.53-.88-1-1.53a16.49,16.49,0,0,0-4.85-4.58,12.1,12.1,0,0,0-4.35-1.6,10.81,10.81,0,0,0-5.28.56,8.53,8.53,0,0,0-4.52,3.7c-1,1.81-1.37,3.94-2,6a11.24,11.24,0,0,1-1.26,2.85A8.62,8.62,0,0,1,116,73.49c-.81.6-1.65,1.13-2.42,1.76a10.09,10.09,0,0,0-2,2.13,13.21,13.21,0,0,0-2,4.92,17.64,17.64,0,0,0-.27,4.62,35.83,35.83,0,0,0,1.18,6.58c.2.76.37,1.35.49,1.75a3.22,3.22,0,0,0,.2.6,4,4,0,0,0-.13-.62c-.1-.43-.24-1-.42-1.76a38.21,38.21,0,0,1-1.06-6.56,17.18,17.18,0,0,1,.31-4.55,12.94,12.94,0,0,1,2-4.79,10.55,10.55,0,0,1,1.91-2c.75-.6,1.59-1.13,2.41-1.74a8.83,8.83,0,0,0,2.24-2.2,11.16,11.16,0,0,0,1.31-3c.61-2.07,1-4.17,1.94-5.9A8.22,8.22,0,0,1,126,59.17a10.4,10.4,0,0,1,5.12-.57,11.59,11.59,0,0,1,4.26,1.52,16.81,16.81,0,0,1,4.86,4.44c.47.62.81,1.13,1,1.48S141.63,66.57,141.64,66.57Z" style="fill: rgb(224, 224, 224); transform-origin: 125.451px 77.0152px;" id="elagfjo6itb6" class="animable"></path><path d="M115,74c.56-.52.83-.16,1.59,0a4.58,4.58,0,0,1,2,1,8.57,8.57,0,0,1,2.78,9,6.68,6.68,0,0,1-6.14-10" style="fill: rgb(224, 224, 224); transform-origin: 118.025px 78.8691px;" id="elqlonc9a9p5" class="animable"></path><path d="M138.05,63.55c.28-.71.68-.5,1.42-.7a4.71,4.71,0,0,1,2.27,0,8.59,8.59,0,0,1,6.38,6.92,6.69,6.69,0,0,1-9.87-6.42" style="fill: rgb(224, 224, 224); transform-origin: 143.085px 66.6487px;" id="elxs2fysq8lfp" class="animable"></path><path d="M110,88.21a7.71,7.71,0,0,1,12.13.59,9.56,9.56,0,0,1-6.29,2.48,9.76,9.76,0,0,1-6.34-2.57" style="fill: rgb(224, 224, 224); transform-origin: 115.815px 88.4102px;" id="elzc4luj0zwp" class="animable"></path><path d="M111.85,77.62a7.83,7.83,0,0,1-7.9-9.33,7,7,0,0,1,8.16,9.25" style="fill: rgb(224, 224, 224); transform-origin: 108.176px 72.8642px;" id="elhi0z0rqfwgf" class="animable"></path><path d="M120,65.17A7.82,7.82,0,0,1,109.4,59a7,7,0,0,1,10.77,6" style="fill: rgb(224, 224, 224); transform-origin: 114.785px 61.8045px;" id="elh66tf7uxacd" class="animable"></path><path d="M122.67,61.11a7.82,7.82,0,0,1,10.55,6.17,7,7,0,0,1-10.77-6" style="fill: rgb(224, 224, 224); transform-origin: 127.835px 64.4847px;" id="eluygt0nso4q" class="animable"></path><path d="M125.9,58.92a7.84,7.84,0,0,1-4.16-11.5,7,7,0,0,1,4.43,11.52" style="fill: rgb(224, 224, 224); transform-origin: 124.233px 53.18px;" id="eldt1haiu6zld" class="animable"></path><path d="M134.2,59.31a7.81,7.81,0,0,1,6.39-10.42,7,7,0,0,1-6.24,10.65" style="fill: rgb(224, 224, 224); transform-origin: 137.675px 54.2176px;" id="eli5lj8d18ilf" class="animable"></path><polyline points="100.76 115.39 96.34 87.65 130.21 88.06 126.87 115.03" style="fill: rgb(38, 50, 56); transform-origin: 113.275px 101.52px;" id="elvpon18xizn" class="animable"></polyline><path d="M115.37,82.58a5.77,5.77,0,0,0,5.62.48,6.1,6.1,0,0,0,3.08-4.86,6.91,6.91,0,0,0-5.61-.29,6.83,6.83,0,0,0-3.73,4.18" style="fill: rgb(94, 166, 255); transform-origin: 119.4px 80.5122px;" id="el2nticny5wyp" class="animable"></path><path d="M130.86,88.56a5.79,5.79,0,0,0,5.62.47,6.07,6.07,0,0,0,3.07-4.86,7,7,0,0,0-5.61-.29,6.86,6.86,0,0,0-3.73,4.18" style="fill: rgb(94, 166, 255); transform-origin: 134.88px 86.4869px;" id="elcojsomqttzf" class="animable"></path><path d="M122.17,75.21a5.75,5.75,0,0,0,4.43,3.49,6.08,6.08,0,0,0,5.24-2.36,6.5,6.5,0,0,0-9.94-1.9" style="fill: rgb(94, 166, 255); transform-origin: 126.87px 75.806px;" id="elo9zdax99ctq" class="animable"></path><path d="M127.82,82.13a5.78,5.78,0,0,0-5.06,2.5,6.07,6.07,0,0,0-.11,5.75,6.93,6.93,0,0,0,4.95-2.66,6.86,6.86,0,0,0,1-5.5" style="fill: rgb(94, 166, 255); transform-origin: 125.388px 86.2512px;" id="eln62i8wuhav" class="animable"></path><path d="M133.27,93.05a5.78,5.78,0,0,0,.14,5.64,6.11,6.11,0,0,0,5.16,2.53,6.89,6.89,0,0,0-.32-5.61c-.89-1.62-2.49-2.42-4.5-2.88" style="fill: rgb(94, 166, 255); transform-origin: 135.811px 96.9767px;" id="elzl42fijcle" class="animable"></path><path d="M142.27,94.33a3.83,3.83,0,0,0-1.33-.85,5.77,5.77,0,0,0-1.84-.33,23.73,23.73,0,0,0-2.5.15,7.37,7.37,0,0,1-3.08-.26A4.73,4.73,0,0,1,131,90.58a13.84,13.84,0,0,1-1.09-3.74A10.93,10.93,0,0,0,128.58,83a13.62,13.62,0,0,0-2.86-2.91A13.85,13.85,0,0,1,123,77.3a9.15,9.15,0,0,1-1.37-6.38,9,9,0,0,1,1.67-4.09,7.39,7.39,0,0,1,.81-.9,1.47,1.47,0,0,1,.32-.27,2,2,0,0,1-.27.32,10.4,10.4,0,0,0-.75.93,9.19,9.19,0,0,0-1.52,4,9,9,0,0,0,1.39,6.15A13.7,13.7,0,0,0,126,79.8a13.69,13.69,0,0,1,2.94,3,10.93,10.93,0,0,1,1.35,4,14.17,14.17,0,0,0,1,3.66,4.47,4.47,0,0,0,2.35,2.32,7,7,0,0,0,3,.29,20.59,20.59,0,0,1,2.53-.09,5.6,5.6,0,0,1,1.88.39,3.44,3.44,0,0,1,1,.66,2.94,2.94,0,0,1,.21.24C142.26,94.3,142.28,94.33,142.27,94.33Z" style="fill: rgb(94, 166, 255); transform-origin: 131.898px 79.995px;" id="elnrujelzr9cp" class="animable"></path><path d="M142.27,94.33a3.83,3.83,0,0,0-1.33-.85,5.77,5.77,0,0,0-1.84-.33,23.73,23.73,0,0,0-2.5.15,7.37,7.37,0,0,1-3.08-.26A4.73,4.73,0,0,1,131,90.58a13.84,13.84,0,0,1-1.09-3.74A10.93,10.93,0,0,0,128.58,83a13.62,13.62,0,0,0-2.86-2.91A13.85,13.85,0,0,1,123,77.3a9.15,9.15,0,0,1-1.37-6.38,9,9,0,0,1,1.67-4.09,7.39,7.39,0,0,1,.81-.9,1.47,1.47,0,0,1,.32-.27,2,2,0,0,1-.27.32,10.4,10.4,0,0,0-.75.93,9.19,9.19,0,0,0-1.52,4,9,9,0,0,0,1.39,6.15A13.7,13.7,0,0,0,126,79.8a13.69,13.69,0,0,1,2.94,3,10.93,10.93,0,0,1,1.35,4,14.17,14.17,0,0,0,1,3.66,4.47,4.47,0,0,0,2.35,2.32,7,7,0,0,0,3,.29,20.59,20.59,0,0,1,2.53-.09,5.6,5.6,0,0,1,1.88.39,3.44,3.44,0,0,1,1,.66,2.94,2.94,0,0,1,.21.24C142.26,94.3,142.28,94.33,142.27,94.33Z" style="fill: rgb(94, 166, 255); transform-origin: 131.898px 79.995px;" id="el8fl4nd8462g" class="animable"></path><path d="M77.62,97.17A8.58,8.58,0,0,0,66,88.73a14.32,14.32,0,0,0,11.3,8.34" style="fill: rgb(94, 166, 255); transform-origin: 71.8152px 92.6697px;" id="elfthntfjfld" class="animable"></path><path d="M75.38,98.35c-1.65,1.82-1.55,4.75-.36,6.9a15.39,15.39,0,0,0,5.27,5.06A11.15,11.15,0,0,0,75.5,97.69" style="fill: rgb(94, 166, 255); transform-origin: 77.44px 104px;" id="ely9w1ct6r0br" class="animable"></path><path d="M83.41,89.82a9.88,9.88,0,0,0,11.23,8.81,13.54,13.54,0,0,0-3.76-7.15c-2.06-1.81-5.3-2.48-7.58-1" style="fill: rgb(94, 166, 255); transform-origin: 88.97px 94.1991px;" id="elw6mx3c21x6" class="animable"></path><path d="M83.35,87.11A5.79,5.79,0,0,0,78.1,82.7,10.08,10.08,0,0,0,71.27,85a8.89,8.89,0,0,0,12.11,1.19" style="fill: rgb(94, 166, 255); transform-origin: 77.325px 85.3629px;" id="elno1stcafff" class="animable"></path><path d="M70.74,107.72c-2.33,2-2.91,5.52-1.95,8.42a14,14,0,0,0,5.78,6.92,18.33,18.33,0,0,0,1.07-9,9.39,9.39,0,0,0-5.1-7.1" style="fill: rgb(94, 166, 255); transform-origin: 72.0728px 115.01px;" id="elp1zg1zyaui8" class="animable"></path><path d="M83,80.31a7.15,7.15,0,0,1,11.32-.66,6.18,6.18,0,0,1-11.15.28" style="fill: rgb(94, 166, 255); transform-origin: 88.66px 80.2434px;" id="elqnxihmfikv" class="animable"></path><path d="M85.83,73.32A9.29,9.29,0,0,1,74,66.06a21,21,0,0,1,5.6.08,9.12,9.12,0,0,1,5,2.44,4.91,4.91,0,0,1,1.3,4.74" style="fill: rgb(94, 166, 255); transform-origin: 80.0303px 69.8134px;" id="el382j2zm3gld" class="animable"></path><path d="M91.2,71.51a7.59,7.59,0,0,1,0-11.72,15.84,15.84,0,0,1,3.32,7.08,6,6,0,0,1,0,2.94,2.68,2.68,0,0,1-2,1.91" style="fill: rgb(94, 166, 255); transform-origin: 91.5683px 65.755px;" id="eloq5xnmmomh" class="animable"></path><g id="elfdefuty6mp"><g style="opacity: 0.4; transform-origin: 71.8152px 92.6697px;" class="animable"><path d="M77.62,97.17A8.58,8.58,0,0,0,66,88.73a14.32,14.32,0,0,0,11.3,8.34" id="el59mi5th64qp" class="animable" style="transform-origin: 71.8152px 92.6697px;"></path></g></g><g id="el3vmcybrdesi"><g style="opacity: 0.4; transform-origin: 77.44px 104px;" class="animable"><path d="M75.38,98.35c-1.65,1.82-1.55,4.75-.36,6.9a15.39,15.39,0,0,0,5.27,5.06A11.15,11.15,0,0,0,75.5,97.69" id="elx8r0362ya7m" class="animable" style="transform-origin: 77.44px 104px;"></path></g></g><g id="eld0nwe5l5ljr"><g style="opacity: 0.4; transform-origin: 88.97px 94.1991px;" class="animable"><path d="M83.41,89.82a9.88,9.88,0,0,0,11.23,8.81,13.54,13.54,0,0,0-3.76-7.15c-2.06-1.81-5.3-2.48-7.58-1" id="elifyysavazbp" class="animable" style="transform-origin: 88.97px 94.1991px;"></path></g></g><g id="elc8oi28ke6x"><g style="opacity: 0.4; transform-origin: 77.325px 85.3629px;" class="animable"><path d="M83.35,87.11A5.79,5.79,0,0,0,78.1,82.7,10.08,10.08,0,0,0,71.27,85a8.89,8.89,0,0,0,12.11,1.19" id="elkz9g1eysp4" class="animable" style="transform-origin: 77.325px 85.3629px;"></path></g></g><g id="el1gadsdaee6n"><g style="opacity: 0.4; transform-origin: 72.0728px 115.01px;" class="animable"><path d="M70.74,107.72c-2.33,2-2.91,5.52-1.95,8.42a14,14,0,0,0,5.78,6.92,18.33,18.33,0,0,0,1.07-9,9.39,9.39,0,0,0-5.1-7.1" id="el898z0z9x53y" class="animable" style="transform-origin: 72.0728px 115.01px;"></path></g></g><g id="eltgpk8uyuwm"><g style="opacity: 0.4; transform-origin: 88.66px 80.2434px;" class="animable"><path d="M83,80.31a7.15,7.15,0,0,1,11.32-.66,6.18,6.18,0,0,1-11.15.28" id="elol6y5zno7ki" class="animable" style="transform-origin: 88.66px 80.2434px;"></path></g></g><g id="elgzba6hfxoov"><g style="opacity: 0.4; transform-origin: 80.0303px 69.8134px;" class="animable"><path d="M85.83,73.32A9.29,9.29,0,0,1,74,66.06a21,21,0,0,1,5.6.08,9.12,9.12,0,0,1,5,2.44,4.91,4.91,0,0,1,1.3,4.74" id="el8r83crk03in" class="animable" style="transform-origin: 80.0303px 69.8134px;"></path></g></g><g id="el3j635t5g6cq"><g style="opacity: 0.4; transform-origin: 91.5683px 65.755px;" class="animable"><path d="M91.2,71.51a7.59,7.59,0,0,1,0-11.72,15.84,15.84,0,0,1,3.32,7.08,6,6,0,0,1,0,2.94,2.68,2.68,0,0,1-2,1.91" id="el6gkx6fqwuay" class="animable" style="transform-origin: 91.5683px 65.755px;"></path></g></g><path d="M100.49,88.54s0-.06,0-.19,0-.33,0-.56c0-.49.08-1.21.1-2.14A19.29,19.29,0,0,0,99.36,78a11.72,11.72,0,0,0-3.1-4.35,8.22,8.22,0,0,0-5.63-2.07,7.09,7.09,0,0,0-3.18.79A6.28,6.28,0,0,0,85,74.67a12.64,12.64,0,0,0-1.43,7.07,50.41,50.41,0,0,1,.17,7.45,11.5,11.5,0,0,1-.92,3.45,7.26,7.26,0,0,1-2.09,2.73,10.79,10.79,0,0,1-2.9,1.49A13.91,13.91,0,0,0,75.1,98.1,9.91,9.91,0,0,0,71.5,102a9.44,9.44,0,0,0-1,4.28A9.9,9.9,0,0,0,71,109.6a12,12,0,0,0,1.28,2.58,1.22,1.22,0,0,1-.12-.15,4.44,4.44,0,0,1-.33-.46,8.85,8.85,0,0,1-1-1.92,9.79,9.79,0,0,1,.39-7.76,10.07,10.07,0,0,1,3.67-4c1.67-1.12,3.88-1.39,5.58-2.73a8.74,8.74,0,0,0,2.87-6,51.45,51.45,0,0,0-.18-7.4,12.89,12.89,0,0,1,1.48-7.27A6.77,6.77,0,0,1,87.29,72a7.49,7.49,0,0,1,3.34-.82,8.52,8.52,0,0,1,5.83,2.18,12,12,0,0,1,3.14,4.48,15.91,15.91,0,0,1,1.06,4.4,22.75,22.75,0,0,1,.1,3.4c0,.94-.11,1.66-.16,2.15l-.07.55C100.51,88.48,100.5,88.54,100.49,88.54Z" style="fill: rgb(94, 166, 255); transform-origin: 85.4967px 91.6794px;" id="elq71re53mqc" class="animable"></path><g id="el70u2i8ah396"><g style="opacity: 0.4; transform-origin: 85.4967px 91.6794px;" class="animable"><path d="M100.49,88.54s0-.06,0-.19,0-.33,0-.56c0-.49.08-1.21.1-2.14A19.29,19.29,0,0,0,99.36,78a11.72,11.72,0,0,0-3.1-4.35,8.22,8.22,0,0,0-5.63-2.07,7.09,7.09,0,0,0-3.18.79A6.28,6.28,0,0,0,85,74.67a12.64,12.64,0,0,0-1.43,7.07,50.41,50.41,0,0,1,.17,7.45,11.5,11.5,0,0,1-.92,3.45,7.26,7.26,0,0,1-2.09,2.73,10.79,10.79,0,0,1-2.9,1.49A13.91,13.91,0,0,0,75.1,98.1,9.91,9.91,0,0,0,71.5,102a9.44,9.44,0,0,0-1,4.28A9.9,9.9,0,0,0,71,109.6a12,12,0,0,0,1.28,2.58,1.22,1.22,0,0,1-.12-.15,4.44,4.44,0,0,1-.33-.46,8.85,8.85,0,0,1-1-1.92,9.79,9.79,0,0,1,.39-7.76,10.07,10.07,0,0,1,3.67-4c1.67-1.12,3.88-1.39,5.58-2.73a8.74,8.74,0,0,0,2.87-6,51.45,51.45,0,0,0-.18-7.4,12.89,12.89,0,0,1,1.48-7.27A6.77,6.77,0,0,1,87.29,72a7.49,7.49,0,0,1,3.34-.82,8.52,8.52,0,0,1,5.83,2.18,12,12,0,0,1,3.14,4.48,15.91,15.91,0,0,1,1.06,4.4,22.75,22.75,0,0,1,.1,3.4c0,.94-.11,1.66-.16,2.15l-.07.55C100.51,88.48,100.5,88.54,100.49,88.54Z" id="elro6t7xby2hk" class="animable" style="transform-origin: 85.4967px 91.6794px;"></path></g></g><path d="M149.81,82.49a7.72,7.72,0,0,0,.5-2.48,6.08,6.08,0,0,0-.66-2.87,6.07,6.07,0,0,0-4.94-3.25,7.08,7.08,0,0,0-2.43.28c-1.66.44-3.3,1.38-5.26,1.77a6.23,6.23,0,0,1-3.06-.07,4.59,4.59,0,0,1-2.48-2c-1.19-1.83-1.52-4.14-2.95-5.83a5.89,5.89,0,0,0-2.67-1.75,7.6,7.6,0,0,0-3.13-.31,8,8,0,0,0-5.2,2.7A12.18,12.18,0,0,0,115,73.47a14.52,14.52,0,0,0-.58,4.73,54.14,54.14,0,0,0,.88,6.92l.33,1.87.07.49c0,.11,0,.17,0,.17a1.66,1.66,0,0,1,0-.16c0-.13-.06-.29-.11-.49q-.14-.68-.39-1.86a47,47,0,0,1-1-6.93,14.57,14.57,0,0,1,.55-4.83,12.48,12.48,0,0,1,2.62-4.92,9.49,9.49,0,0,1,2.38-1.9,8,8,0,0,1,3-.93A7.82,7.82,0,0,1,126,66a6.14,6.14,0,0,1,2.84,1.85c1.51,1.82,1.84,4.13,3,5.87a4.23,4.23,0,0,0,2.29,1.85,5.86,5.86,0,0,0,2.88.08c1.89-.36,3.54-1.29,5.25-1.73a7.41,7.41,0,0,1,2.54-.28,6.37,6.37,0,0,1,2.26.64A6.06,6.06,0,0,1,150.45,80a5.75,5.75,0,0,1-.36,1.88A3,3,0,0,1,149.81,82.49Z" style="fill: rgb(94, 166, 255); transform-origin: 132.317px 76.6215px;" id="el8ueue3ibiq8" class="animable"></path><path d="M130,70.2a6.61,6.61,0,0,0,6,.4,6.1,6.1,0,0,0,3.07-4.86,6.49,6.49,0,0,0-9.34,3.88" style="fill: rgb(94, 166, 255); transform-origin: 134.4px 68.0415px;" id="elxmukjrm47z" class="animable"></path><path d="M136.42,76a6.59,6.59,0,0,0,2.8,5.37,6.1,6.1,0,0,0,5.75.09,6.49,6.49,0,0,0-8.18-6" style="fill: rgb(94, 166, 255); transform-origin: 140.695px 78.6852px;" id="eltyk8620upos" class="animable"></path><path d="M147.56,74.73a6.56,6.56,0,0,0,6.05-.25,6.08,6.08,0,0,0,2.53-5.16,6.49,6.49,0,0,0-8.87,4.86" style="fill: rgb(94, 166, 255); transform-origin: 151.707px 72.0889px;" id="el4pnttka27gp" class="animable"></path><path d="M120.64,66.34a6.9,6.9,0,0,1-2.4-5.7A6.09,6.09,0,0,1,122,56.27a6.49,6.49,0,0,1-1,10.07" style="fill: rgb(94, 166, 255); transform-origin: 121.085px 61.305px;" id="elxl67i2yua9" class="animable"></path><path d="M77.15,58.37s0-.06.07-.15l.22-.42c.21-.36.53-.88,1-1.53a16.37,16.37,0,0,1,4.85-4.58,12.1,12.1,0,0,1,4.35-1.6,10.81,10.81,0,0,1,5.28.56,8.53,8.53,0,0,1,4.52,3.7c1,1.81,1.37,3.94,2,6a10.94,10.94,0,0,0,1.26,2.85,8.49,8.49,0,0,0,2.15,2.12c.81.6,1.65,1.13,2.42,1.76a10.36,10.36,0,0,1,2,2.13,13.14,13.14,0,0,1,2,4.92,17.64,17.64,0,0,1,.27,4.62,35,35,0,0,1-1.19,6.58c-.2.76-.37,1.35-.48,1.75a5.41,5.41,0,0,1-.2.6,4,4,0,0,1,.13-.62c.1-.44.24-1,.42-1.77a38.9,38.9,0,0,0,1.06-6.55,17.61,17.61,0,0,0-.31-4.55,12.94,12.94,0,0,0-2-4.79A10.55,10.55,0,0,0,105,67.32c-.75-.6-1.59-1.14-2.42-1.74a9,9,0,0,1-2.23-2.2,10.85,10.85,0,0,1-1.31-3c-.62-2.07-1-4.17-1.94-5.9A8.24,8.24,0,0,0,92.78,51a10.64,10.64,0,0,0-5.12-.57,12,12,0,0,0-4.26,1.52,16.82,16.82,0,0,0-4.86,4.45c-.47.62-.81,1.13-1,1.48A5.86,5.86,0,0,1,77.15,58.37Z" style="fill: rgb(94, 166, 255); transform-origin: 93.3686px 68.8303px;" id="el2qo7ejv3s3p" class="animable"></path><path d="M103.76,65.83c-.56-.52-.84-.16-1.59,0a4.58,4.58,0,0,0-2,1,8.57,8.57,0,0,0-2.78,9,6.68,6.68,0,0,0,6.14-10" style="fill: rgb(94, 166, 255); transform-origin: 100.735px 70.6991px;" id="elbamy4npogdq" class="animable"></path><path d="M80.74,55.35c-.28-.71-.68-.5-1.42-.7a4.71,4.71,0,0,0-2.27,0,8.58,8.58,0,0,0-6.38,6.92,6.69,6.69,0,0,0,9.87-6.42" style="fill: rgb(94, 166, 255); transform-origin: 75.705px 58.4487px;" id="el73on12wc4vm" class="animable"></path><path d="M108.83,80a7.72,7.72,0,0,0-12.14.59,9.64,9.64,0,0,0,6.3,2.48,9.73,9.73,0,0,0,6.33-2.57" style="fill: rgb(94, 166, 255); transform-origin: 103.005px 80.2002px;" id="elpxwshtd1b7" class="animable"></path><path d="M106.94,69.42a7.84,7.84,0,0,0,7.9-9.34,7,7,0,0,0-8.16,9.26" style="fill: rgb(94, 166, 255); transform-origin: 110.612px 64.6586px;" id="elwpyuy2rge8i" class="animable"></path><path d="M98.84,57a7.82,7.82,0,0,0,10.55-6.18,7,7,0,0,0-10.77,6" style="fill: rgb(94, 166, 255); transform-origin: 104.005px 53.62px;" id="el5qhj4dr2rmx" class="animable"></path><path d="M96.12,52.91a7.81,7.81,0,0,0-10.55,6.17,7,7,0,0,0,10.77-6" style="fill: rgb(94, 166, 255); transform-origin: 90.9554px 56.2828px;" id="el8glr8ur03dn" class="animable"></path><path d="M92.88,50.72a7.83,7.83,0,0,0,4.17-11.5,7,7,0,0,0-4.44,11.51" style="fill: rgb(94, 166, 255); transform-origin: 94.5583px 44.975px;" id="eld4mfaxwjhl5" class="animable"></path><path d="M84.59,51.11A7.81,7.81,0,0,0,78.2,40.69a7,7,0,0,0,6.23,10.64" style="fill: rgb(94, 166, 255); transform-origin: 81.1181px 46.0123px;" id="elv47gzi5ce5" class="animable"></path><polygon points="95.91 112.17 98.5 115.39 130.37 115.39 132.55 112.17 95.91 112.17" style="fill: rgb(38, 50, 56); transform-origin: 114.23px 113.78px;" id="el6qeoo6yzun3" class="animable"></polygon><path d="M131.85,112.15c0,.1-7.84.18-17.5.18s-17.49-.08-17.49-.18,7.83-.19,17.49-.19S131.85,112,131.85,112.15Z" style="fill: rgb(69, 90, 100); transform-origin: 114.355px 112.145px;" id="elds99b0ufazi" class="animable"></path><path d="M128.26,100s-.06.1-.2.26a5.26,5.26,0,0,1-.65.69,12,12,0,0,1-2.84,2,12.46,12.46,0,0,1-5,1.28,11.84,11.84,0,0,1-3-.26,17.29,17.29,0,0,1-3.1-1c-2.06-.88-3.93-1.88-5.75-2.45a9.87,9.87,0,0,0-5-.48,6.38,6.38,0,0,0-3,1.41c-.6.53-.83.93-.86.9s0-.1.16-.28a3.92,3.92,0,0,1,.61-.73,6.35,6.35,0,0,1,3.08-1.56,10.06,10.06,0,0,1,5.12.41c1.86.58,3.75,1.57,5.78,2.44a17.2,17.2,0,0,0,3,1,11.54,11.54,0,0,0,3,.27,12.74,12.74,0,0,0,4.88-1.17A15.11,15.11,0,0,0,128.26,100Z" style="fill: rgb(69, 90, 100); transform-origin: 113.555px 101.93px;" id="el2t2w84eioxg" class="animable"></path><path d="M128.58,97.55s-.07.1-.22.25a7.17,7.17,0,0,1-.7.64,13,13,0,0,1-3,1.83,13.87,13.87,0,0,1-5,1.19,13.33,13.33,0,0,1-3-.2,19.86,19.86,0,0,1-3.15-.89c-2.1-.77-4-1.64-5.88-2.16a11.6,11.6,0,0,0-5-.45A7.6,7.6,0,0,0,99.46,99c-.66.47-.95.82-1,.8s.06-.1.2-.27a6.14,6.14,0,0,1,.7-.64,7.28,7.28,0,0,1,3.2-1.35,11.6,11.6,0,0,1,5.13.39c1.88.5,3.83,1.38,5.91,2.13a21.07,21.07,0,0,0,3.1.89,14.51,14.51,0,0,0,3,.22,14.28,14.28,0,0,0,4.92-1.1A16.79,16.79,0,0,0,128.58,97.55Z" style="fill: rgb(69, 90, 100); transform-origin: 113.514px 99.444px;" id="el44ujv01n81g" class="animable"></path><rect x="80.07" y="118.96" width="3.11" height="8.67" style="fill: rgb(69, 90, 100); transform-origin: 81.625px 123.295px;" id="elfeuu4kkpah4" class="animable"></rect><rect x="124.46" y="118.96" width="3.11" height="8.67" style="fill: rgb(69, 90, 100); transform-origin: 126.015px 123.295px;" id="ely1dkgxssh9e" class="animable"></rect></g><g id="freepik--Television--inject-18" class="animable" style="transform-origin: 256.065px 207.91px;"><rect x="144.14" y="129.29" width="223.85" height="157.24" style="fill: rgb(38, 50, 56); transform-origin: 256.065px 207.91px;" id="elmydedncklgl" class="animable"></rect><rect x="149.79" y="136.37" width="212.42" height="143.07" style="fill: rgb(250, 250, 250); transform-origin: 256px 207.905px;" id="elbfukm186zn" class="animable"></rect><path d="M362.21,279.44s0-.88,0-2.59,0-4.24,0-7.54c0-6.62,0-16.33-.06-28.77,0-24.86-.06-60.6-.11-104.17l.21.21-212.4,0h0l.26-.26c0,51,0,99.48,0,143.07l-.24-.23,153.09.11,43.7.07,11.61,0h4l-1,0h-3l-11.57,0-43.65.06-153.24.12h-.24v-.24c0-43.59,0-92.07,0-143.07v-.26h.28l212.4.06h.21v.2c-.05,43.62-.08,79.41-.11,104.3,0,12.42,0,22.12-.05,28.72,0,3.29,0,5.8,0,7.5S362.21,279.44,362.21,279.44Z" style="fill: rgb(38, 50, 56); transform-origin: 256.015px 207.735px;" id="ellwg0z46g3a" class="animable"></path><polygon points="201.72 264.49 154.57 264.49 154.36 189.97 201.51 189.97 201.72 264.49" style="fill: rgb(235, 235, 235); transform-origin: 178.04px 227.23px;" id="ell48lxom1w79" class="animable"></polygon><rect x="177.94" y="189.97" width="23.57" height="74.51" style="fill: rgb(224, 224, 224); transform-origin: 189.725px 227.225px;" id="elkmmf8jhvrm" class="animable"></rect><rect x="159.75" y="175.3" width="16.65" height="14.67" style="fill: rgb(235, 235, 235); transform-origin: 168.075px 182.635px;" id="elgyoe53sikyf" class="animable"></rect><rect x="172.43" y="175.3" width="3.97" height="14.67" style="fill: rgb(224, 224, 224); transform-origin: 174.415px 182.635px;" id="el87imxgfircu" class="animable"></rect><rect x="150.43" y="189.12" width="52.46" height="0.86" style="fill: rgb(224, 224, 224); transform-origin: 176.66px 189.55px;" id="el0h0ebel1pvu5" class="animable"></rect><rect x="163.67" y="196.37" width="3.99" height="8.41" style="fill: rgb(255, 255, 255); transform-origin: 165.665px 200.575px;" id="el7in7thk4cle" class="animable"></rect><path d="M177.94,208.09c0,.09-5.28.16-11.79.16s-11.79-.07-11.79-.16,5.28-.16,11.79-.16S177.94,208,177.94,208.09Z" style="fill: rgb(224, 224, 224); transform-origin: 166.15px 208.09px;" id="el478ziq17z6e" class="animable"></path><rect x="187.45" y="196.37" width="3.99" height="8.41" style="fill: rgb(245, 245, 245); transform-origin: 189.445px 200.575px;" id="el9j6sxl548xc" class="animable"></rect><path d="M201.72,208.09c0,.09-5.28.16-11.79.16s-11.79-.07-11.79-.16,5.28-.16,11.79-.16S201.72,208,201.72,208.09Z" style="fill: rgb(235, 235, 235); transform-origin: 189.93px 208.09px;" id="el1lmf3fpsqov" class="animable"></path><rect x="187.45" y="213.08" width="3.99" height="8.41" style="fill: rgb(245, 245, 245); transform-origin: 189.445px 217.285px;" id="el21jsrjbkcre" class="animable"></rect><path d="M201.72,224.8c0,.08-5.28.16-11.79.16s-11.79-.08-11.79-.16,5.28-.17,11.79-.17S201.72,224.71,201.72,224.8Z" style="fill: rgb(235, 235, 235); transform-origin: 189.93px 224.795px;" id="el5h6lutlrcup" class="animable"></path><rect x="187.45" y="230.29" width="3.99" height="8.41" style="fill: rgb(245, 245, 245); transform-origin: 189.445px 234.495px;" id="elygpzrrzm3i" class="animable"></rect><path d="M201.72,242c0,.08-5.28.16-11.79.16s-11.79-.08-11.79-.16,5.28-.16,11.79-.16S201.72,241.92,201.72,242Z" style="fill: rgb(235, 235, 235); transform-origin: 189.93px 242px;" id="el72hukvqebub" class="animable"></path><rect x="187.45" y="247.5" width="3.99" height="8.41" style="fill: rgb(245, 245, 245); transform-origin: 189.445px 251.705px;" id="elu500l7osbqm" class="animable"></rect><path d="M201.72,259.22c0,.09-5.28.16-11.79.16s-11.79-.07-11.79-.16,5.28-.16,11.79-.16S201.72,259.13,201.72,259.22Z" style="fill: rgb(235, 235, 235); transform-origin: 189.93px 259.22px;" id="elrqa38nq933f" class="animable"></path><rect x="163.67" y="213.33" width="3.99" height="8.41" style="fill: rgb(255, 255, 255); transform-origin: 165.665px 217.535px;" id="eluos4nba1n1" class="animable"></rect><path d="M177.94,225.05c0,.09-5.28.16-11.79.16s-11.79-.07-11.79-.16,5.28-.16,11.79-.16S177.94,225,177.94,225.05Z" style="fill: rgb(224, 224, 224); transform-origin: 166.15px 225.05px;" id="el5dimbbbz6qw" class="animable"></path><rect x="163.67" y="230.29" width="3.99" height="8.41" style="fill: rgb(255, 255, 255); transform-origin: 165.665px 234.495px;" id="el1dtzfmqovqz" class="animable"></rect><path d="M177.94,242c0,.09-5.28.16-11.79.16s-11.79-.07-11.79-.16,5.28-.16,11.79-.16S177.94,241.92,177.94,242Z" style="fill: rgb(224, 224, 224); transform-origin: 166.15px 242px;" id="ellst5pxknu" class="animable"></path><rect x="163.67" y="247.26" width="3.99" height="8.41" style="fill: rgb(255, 255, 255); transform-origin: 165.665px 251.465px;" id="elflch4snxkk" class="animable"></rect><path d="M177.94,259c0,.09-5.28.16-11.79.16s-11.79-.07-11.79-.16,5.28-.16,11.79-.16S177.94,258.89,177.94,259Z" style="fill: rgb(224, 224, 224); transform-origin: 166.15px 259px;" id="eljgcaepkpf1a" class="animable"></path><rect x="275.67" y="175.77" width="31.67" height="82.88" style="fill: rgb(235, 235, 235); transform-origin: 291.505px 217.21px;" id="elzk1rce9fgq" class="animable"></rect><rect x="291.5" y="175.77" width="15.83" height="82.88" style="fill: rgb(224, 224, 224); transform-origin: 299.415px 217.21px;" id="elnsld75yn7i" class="animable"></rect><rect x="279.28" y="165.92" width="11.18" height="9.85" style="fill: rgb(235, 235, 235); transform-origin: 284.87px 170.845px;" id="elx63adw10bk" class="animable"></rect><rect x="287.8" y="165.92" width="2.67" height="9.85" style="fill: rgb(224, 224, 224); transform-origin: 289.135px 170.845px;" id="eloffpvubtqs9" class="animable"></rect><rect x="273.03" y="175.19" width="35.23" height="0.57" style="fill: rgb(224, 224, 224); transform-origin: 290.645px 175.475px;" id="ele9lacwjva7w" class="animable"></rect><rect x="281.92" y="180.07" width="2.68" height="5.65" style="fill: rgb(255, 255, 255); transform-origin: 283.26px 182.895px;" id="elyw201t67awq" class="animable"></rect><path d="M291.5,187.94c0,.06-3.54.1-7.92.1s-7.91,0-7.91-.1,3.54-.11,7.91-.11S291.5,187.88,291.5,187.94Z" style="fill: rgb(224, 224, 224); transform-origin: 283.585px 187.935px;" id="elpm085n3sob" class="animable"></path><rect x="297.89" y="180.07" width="2.68" height="5.65" style="fill: rgb(245, 245, 245); transform-origin: 299.23px 182.895px;" id="eluz1eec5ph4" class="animable"></rect><path d="M307.47,187.94c0,.06-3.54.1-7.92.1s-7.91,0-7.91-.1,3.54-.11,7.91-.11S307.47,187.88,307.47,187.94Z" style="fill: rgb(235, 235, 235); transform-origin: 299.555px 187.935px;" id="eloo9wdcjh95" class="animable"></path><rect x="297.89" y="191.29" width="2.68" height="5.65" style="fill: rgb(245, 245, 245); transform-origin: 299.23px 194.115px;" id="elyxh3lg3v55e" class="animable"></rect><path d="M307.47,199.16c0,.06-3.54.11-7.92.11s-7.91-.05-7.91-.11,3.54-.11,7.91-.11S307.47,199.1,307.47,199.16Z" style="fill: rgb(235, 235, 235); transform-origin: 299.555px 199.16px;" id="elrv84ygvv5sa" class="animable"></path><rect x="297.89" y="202.85" width="2.68" height="5.65" style="fill: rgb(245, 245, 245); transform-origin: 299.23px 205.675px;" id="el3qje35qedv" class="animable"></rect><path d="M307.47,210.72c0,.06-3.54.1-7.92.1s-7.91,0-7.91-.1,3.54-.11,7.91-.11S307.47,210.66,307.47,210.72Z" style="fill: rgb(235, 235, 235); transform-origin: 299.555px 210.715px;" id="elqw4hev3ohwn" class="animable"></path><rect x="297.89" y="214.41" width="2.68" height="5.65" style="fill: rgb(245, 245, 245); transform-origin: 299.23px 217.235px;" id="ele2097737xm9" class="animable"></rect><path d="M307.47,222.28c0,.06-3.54.1-7.92.1s-7.91,0-7.91-.1,3.54-.11,7.91-.11S307.47,222.22,307.47,222.28Z" style="fill: rgb(235, 235, 235); transform-origin: 299.555px 222.275px;" id="elo6raash67dk" class="animable"></path><rect x="297.89" y="225.64" width="2.68" height="5.65" style="fill: rgb(245, 245, 245); transform-origin: 299.23px 228.465px;" id="el33hhj5ovtpd" class="animable"></rect><path d="M307.47,233.51c0,.05-3.54.1-7.92.1s-7.91-.05-7.91-.1,3.54-.11,7.91-.11S307.47,233.45,307.47,233.51Z" style="fill: rgb(235, 235, 235); transform-origin: 299.555px 233.505px;" id="elrgsafipx8rk" class="animable"></path><rect x="297.89" y="236.91" width="2.68" height="5.65" style="fill: rgb(245, 245, 245); transform-origin: 299.23px 239.735px;" id="elmum94y3qdf8" class="animable"></rect><rect x="297.89" y="248.33" width="2.68" height="5.65" style="fill: rgb(245, 245, 245); transform-origin: 299.23px 251.155px;" id="elpckew3wj3re" class="animable"></rect><path d="M307.47,244.78c0,.06-3.54.11-7.92.11s-7.91,0-7.91-.11,3.54-.11,7.91-.11S307.47,244.72,307.47,244.78Z" style="fill: rgb(235, 235, 235); transform-origin: 299.555px 244.78px;" id="elbnvy7qykq3s" class="animable"></path><rect x="281.92" y="191.46" width="2.68" height="5.65" style="fill: rgb(255, 255, 255); transform-origin: 283.26px 194.285px;" id="elqurpf8xruws" class="animable"></rect><path d="M291.5,199.33c0,.06-3.54.11-7.92.11s-7.91-.05-7.91-.11,3.54-.11,7.91-.11S291.5,199.27,291.5,199.33Z" style="fill: rgb(224, 224, 224); transform-origin: 283.585px 199.33px;" id="elh6wl6sn3h7h" class="animable"></path><rect x="281.92" y="202.85" width="2.68" height="5.65" style="fill: rgb(255, 255, 255); transform-origin: 283.26px 205.675px;" id="el6iqoieniiyj" class="animable"></rect><path d="M291.5,210.72c0,.06-3.54.11-7.92.11s-7.91-.05-7.91-.11,3.54-.11,7.91-.11S291.5,210.66,291.5,210.72Z" style="fill: rgb(224, 224, 224); transform-origin: 283.585px 210.72px;" id="eluhckc3tbmu" class="animable"></path><rect x="281.92" y="214.24" width="2.68" height="5.65" style="fill: rgb(255, 255, 255); transform-origin: 283.26px 217.065px;" id="eleyj9bbl1elk" class="animable"></rect><path d="M291.5,222.11c0,.06-3.54.11-7.92.11s-7.91-.05-7.91-.11,3.54-.1,7.91-.1S291.5,222.05,291.5,222.11Z" style="fill: rgb(224, 224, 224); transform-origin: 283.585px 222.115px;" id="elm77790n9o0b" class="animable"></path><rect x="281.92" y="225.64" width="2.68" height="5.65" style="fill: rgb(255, 255, 255); transform-origin: 283.26px 228.465px;" id="elczd8hyl4i" class="animable"></rect><path d="M291.5,233.51c0,.05-3.54.1-7.92.1s-7.91-.05-7.91-.1,3.54-.11,7.91-.11S291.5,233.45,291.5,233.51Z" style="fill: rgb(224, 224, 224); transform-origin: 283.585px 233.505px;" id="elj221a6tr9u" class="animable"></path><rect x="281.92" y="237.03" width="2.68" height="5.65" style="fill: rgb(255, 255, 255); transform-origin: 283.26px 239.855px;" id="eljytadl91yra" class="animable"></rect><path d="M291.5,244.9c0,.06-3.54.11-7.92.11s-7.91,0-7.91-.11,3.54-.11,7.91-.11S291.5,244.84,291.5,244.9Z" style="fill: rgb(224, 224, 224); transform-origin: 283.585px 244.9px;" id="elru9qeqaznar" class="animable"></path><rect x="281.92" y="248.42" width="2.68" height="5.65" style="fill: rgb(255, 255, 255); transform-origin: 283.26px 251.245px;" id="elqmdmvpvxqas" class="animable"></rect><rect x="298.9" y="158.57" width="53.07" height="100.72" style="fill: rgb(224, 224, 224); transform-origin: 325.435px 208.93px;" id="eldmm1rej1utv" class="animable"></rect><rect x="327.08" y="158.57" width="24.88" height="100.72" style="fill: rgb(235, 235, 235); transform-origin: 339.52px 208.93px;" id="elzy7eej1ozw" class="animable"></rect><rect x="310.02" y="168.05" width="4.77" height="11.59" style="fill: rgb(245, 245, 245); transform-origin: 312.405px 173.845px;" id="elc6by2vflqmn" class="animable"></rect><rect x="310.02" y="213.42" width="4.77" height="11.59" style="fill: rgb(245, 245, 245); transform-origin: 312.405px 219.215px;" id="elik25jzvke8" class="animable"></rect><path d="M327.08,184.19c0,.1-6.31.18-14.09.18s-14.09-.08-14.09-.18S305.2,184,313,184,327.08,184.09,327.08,184.19Z" style="fill: rgb(245, 245, 245); transform-origin: 312.99px 184.185px;" id="el0i8m88qexesc" class="animable"></path><rect x="310.02" y="190.9" width="4.77" height="11.59" style="fill: rgb(245, 245, 245); transform-origin: 312.405px 196.695px;" id="elg8k420ipluc" class="animable"></rect><path d="M327.08,207.05c0,.1-6.31.18-14.09.18s-14.09-.08-14.09-.18,6.3-.18,14.09-.18S327.08,207,327.08,207.05Z" style="fill: rgb(245, 245, 245); transform-origin: 312.99px 207.05px;" id="elasixke5890q" class="animable"></path><rect x="332.37" y="168.05" width="4.77" height="11.59" style="fill: rgb(224, 224, 224); transform-origin: 334.755px 173.845px;" id="el2q4zabap4qy" class="animable"></rect><rect x="342.72" y="168.05" width="4.77" height="11.59" style="fill: rgb(224, 224, 224); transform-origin: 345.105px 173.845px;" id="eljeecmwthl3" class="animable"></rect><rect x="332.37" y="190.04" width="4.77" height="11.59" style="fill: rgb(224, 224, 224); transform-origin: 334.755px 195.835px;" id="elobnxtro52ko" class="animable"></rect><rect x="342.72" y="190.04" width="4.77" height="11.59" style="fill: rgb(224, 224, 224); transform-origin: 345.105px 195.835px;" id="else0t3r8d0q" class="animable"></rect><rect x="332.37" y="212.04" width="4.77" height="11.59" style="fill: rgb(224, 224, 224); transform-origin: 334.755px 217.835px;" id="elrg2e7qb3lr7" class="animable"></rect><rect x="342.72" y="212.04" width="4.77" height="11.59" style="fill: rgb(224, 224, 224); transform-origin: 345.105px 217.835px;" id="elu5pqe4tr3m" class="animable"></rect><rect x="294.91" y="156.13" width="61.05" height="2.52" style="fill: rgb(224, 224, 224); transform-origin: 325.435px 157.39px;" id="elkuce3mbn49i" class="animable"></rect><path d="M352.34,158.89c0,.1-11.86.18-26.49.18s-26.5-.08-26.5-.18,11.86-.18,26.5-.18S352.34,158.79,352.34,158.89Z" style="fill: rgb(235, 235, 235); transform-origin: 325.845px 158.89px;" id="elia38wh2lrx" class="animable"></path><rect x="149.79" y="251.71" width="50.11" height="27.74" style="fill: rgb(69, 90, 100); transform-origin: 174.845px 265.58px;" id="elf32mq2lq2f" class="animable"></rect><path d="M166.41,150.76h1.27v4.47h2.76v1h-4Z" style="fill: rgb(94, 166, 255); transform-origin: 168.425px 153.495px;" id="el5x00wdzn3nv" class="animable"></path><path d="M170.92,150.76a.71.71,0,0,1,.77-.68.69.69,0,0,1,.76.66.77.77,0,0,1-1.53,0Zm.15,1.28h1.23v4.22h-1.23Z" style="fill: rgb(94, 166, 255); transform-origin: 171.685px 153.168px;" id="el9ec3k3eukjw" class="animable"></path><path d="M177.63,152l-1.78,4.22h-1.26L172.81,152h1.27l1.17,2.87,1.21-2.87Z" style="fill: rgb(94, 166, 255); transform-origin: 175.22px 154.11px;" id="el8uff4ffxil7" class="animable"></path><path d="M182.14,154.5h-3.2a1.13,1.13,0,0,0,1.21.84,1.44,1.44,0,0,0,1.06-.4l.65.7a2.46,2.46,0,0,1-4.15-1.49A2.15,2.15,0,0,1,180,152a2.1,2.1,0,0,1,2.2,2.2C182.16,154.26,182.15,154.39,182.14,154.5Zm-3.22-.72H181a1.06,1.06,0,0,0-2.09,0Z" style="fill: rgb(94, 166, 255); transform-origin: 179.956px 154.162px;" id="elvbwi7qqw3bg" class="animable"></path><path d="M184.44,158.94h-21.7V148.17h21.7Zm-21-.73h20.26v-9.32H163.46Z" style="fill: rgb(94, 166, 255); transform-origin: 173.59px 153.555px;" id="elq134fp2xi4p" class="animable"></path><rect x="171.07" y="265.62" width="22.46" height="7.24" style="fill: rgb(255, 255, 255); transform-origin: 182.3px 269.24px;" id="el8xv3qvqa71" class="animable"></rect><path d="M167.3,257.56v5.75h-1.09l-2.87-3.49v3.49H162v-5.75h1.1l2.85,3.49v-3.49Z" style="fill: rgb(255, 255, 255); transform-origin: 164.65px 260.435px;" id="el5gaeuhfepfj" class="animable"></path><path d="M173.11,262.24v1.07h-4.45v-5.75H173v1.07h-3v1.24h2.67v1H170v1.33Z" style="fill: rgb(255, 255, 255); transform-origin: 170.885px 260.435px;" id="elbuae6fp7hl" class="animable"></path><path d="M182.78,257.56l-1.88,5.75h-1.43l-1.27-3.89-1.3,3.89h-1.42l-1.89-5.75H175l1.3,4,1.35-4h1.23l1.32,4.07,1.33-4.07Z" style="fill: rgb(255, 255, 255); transform-origin: 178.185px 260.435px;" id="elddstp426gdk" class="animable"></path><path d="M183.07,262.74l.45-1a3.4,3.4,0,0,0,1.9.6c.78,0,1.1-.26,1.1-.62,0-1.07-3.34-.33-3.34-2.47,0-1,.79-1.79,2.42-1.79a3.81,3.81,0,0,1,2,.51l-.41,1a3.26,3.26,0,0,0-1.59-.45c-.79,0-1.1.29-1.1.66,0,1.05,3.35.32,3.35,2.43,0,1-.8,1.79-2.44,1.79A4.13,4.13,0,0,1,183.07,262.74Z" style="fill: rgb(255, 255, 255); transform-origin: 185.46px 260.43px;" id="elghe5vmn5s3" class="animable"></path><path d="M158.72,267.29h.89v3.12h1.93v.72h-2.82Z" style="fill: rgb(255, 255, 255); transform-origin: 160.13px 269.21px;" id="eldfh4egwa3sv" class="animable"></path><path d="M161.88,267.29a.49.49,0,0,1,.53-.48.48.48,0,0,1,.53.46.53.53,0,0,1-1.06,0Zm.1.89h.86v2.95H162Z" style="fill: rgb(255, 255, 255); transform-origin: 162.41px 268.969px;" id="el1n60pn33mly" class="animable"></path><path d="M166.57,268.18l-1.25,2.95h-.88l-1.24-2.95h.88l.82,2,.85-2Z" style="fill: rgb(255, 255, 255); transform-origin: 164.885px 269.655px;" id="elsba0txa20r" class="animable"></path><path d="M169.72,269.9h-2.24a.8.8,0,0,0,.85.59,1,1,0,0,0,.74-.29l.46.5a1.57,1.57,0,0,1-1.22.48,1.54,1.54,0,0,1-1.69-1.53,1.51,1.51,0,0,1,1.58-1.52,1.47,1.47,0,0,1,1.54,1.54C169.74,269.73,169.72,269.83,169.72,269.9Zm-2.25-.5h1.46a.74.74,0,0,0-1.46,0Z" style="fill: rgb(255, 255, 255); transform-origin: 168.181px 269.658px;" id="el0bhi51udamus" class="animable"></path><path d="M172.21,270.86l.29-.62a2,2,0,0,0,1,.29c.4,0,.55-.11.55-.27,0-.48-1.79,0-1.79-1.17,0-.56.51-1,1.37-1a2.49,2.49,0,0,1,1.14.26l-.29.61a1.74,1.74,0,0,0-.85-.22c-.39,0-.55.12-.55.28,0,.5,1.79,0,1.79,1.18,0,.55-.52.94-1.4.94A2.54,2.54,0,0,1,172.21,270.86Z" style="fill: rgb(94, 166, 255); transform-origin: 173.54px 269.616px;" id="elc6fle5phq5c" class="animable"></path><path d="M177.32,271a1.2,1.2,0,0,1-.7.19,1,1,0,0,1-1.1-1.06V268.9h-.46v-.66h.46v-.72h.86v.72h.73v.66h-.73v1.21a.34.34,0,0,0,.36.39.58.58,0,0,0,.35-.11Z" style="fill: rgb(94, 166, 255); transform-origin: 176.19px 269.358px;" id="eln2fp9db3bi" class="animable"></path><path d="M179.64,268.13v.79h-.19a.73.73,0,0,0-.79.83v1.39h-.86v-2.95h.82v.39A1.19,1.19,0,0,1,179.64,268.13Z" style="fill: rgb(94, 166, 255); transform-origin: 178.72px 269.633px;" id="eletpjuzbzftb" class="animable"></path><path d="M183,269.9h-2.23a.78.78,0,0,0,.84.59,1,1,0,0,0,.74-.29l.46.5a1.73,1.73,0,0,1-2.91-1.05,1.51,1.51,0,0,1,1.58-1.52,1.47,1.47,0,0,1,1.54,1.54A2,2,0,0,1,183,269.9Zm-2.24-.5h1.45a.73.73,0,0,0-1.45,0Z" style="fill: rgb(94, 166, 255); transform-origin: 181.461px 269.652px;" id="elyd32q84zdji" class="animable"></path><path d="M186.12,269.45v1.68h-.8v-.37a1,1,0,0,1-.9.42c-.69,0-1.1-.39-1.1-.9s.37-.88,1.27-.88h.68c0-.37-.22-.59-.68-.59a1.45,1.45,0,0,0-.86.28l-.3-.6a2.26,2.26,0,0,1,1.27-.36C185.6,268.13,186.12,268.55,186.12,269.45Zm-.85.75v-.3h-.59c-.4,0-.53.14-.53.34s.18.36.49.36A.63.63,0,0,0,185.27,270.2Z" style="fill: rgb(94, 166, 255); transform-origin: 184.72px 269.657px;" id="elofvxe8gcqoe" class="animable"></path><path d="M191.89,269.44v1.69H191v-1.56c0-.48-.22-.7-.56-.7s-.66.25-.66.78v1.48H189v-1.56c0-.48-.21-.7-.56-.7s-.65.25-.65.78v1.48h-.86v-2.95h.82v.34a1.18,1.18,0,0,1,.93-.39,1.09,1.09,0,0,1,1,.49,1.32,1.32,0,0,1,1.07-.49A1.14,1.14,0,0,1,191.89,269.44Z" style="fill: rgb(94, 166, 255); transform-origin: 189.416px 269.628px;" id="el94pchuu41if" class="animable"></path><path d="M171.33,273H156.16v-7.53h15.17Zm-14.67-.5h14.16V266H156.66Z" style="fill: rgb(245, 245, 245); transform-origin: 163.745px 269.235px;" id="elri0cd0j1o9e" class="animable"></path><rect x="199.9" y="268.13" width="162.38" height="11.31" style="fill: rgb(69, 90, 100); transform-origin: 281.09px 273.785px;" id="elswam38093h" class="animable"></rect><path d="M349.63,272.51c0,.15-30.32.26-67.71.26s-67.72-.11-67.72-.26,30.32-.26,67.72-.26S349.63,272.37,349.63,272.51Z" style="fill: rgb(255, 255, 255); transform-origin: 281.915px 272.51px;" id="el5wod3rhst3i" class="animable"></path><path d="M349.43,275c0,.14-30.32.26-67.71.26S214,275.11,214,275s30.31-.26,67.72-.26S349.43,274.82,349.43,275Z" style="fill: rgb(255, 255, 255); transform-origin: 281.715px 275px;" id="elyok09hbrd59" class="animable"></path><path d="M306.89,178.1s-4.3,12.14-5.48,14a47,47,0,0,1-3.45,4.37l4.9,4.66,3.25-3.62,3.76-2.7s6-7.23,6.26-8-1.08-2.26-3-.86-3.65,4-4.19,3.28.32-7.58.32-7.58,1.61-3.54,1.08-4.72H309s0-1.19-.65-.86-.64,1.29-.64,1.29A1,1,0,0,0,306.89,178.1Z" style="fill: rgb(214, 150, 118); transform-origin: 307.061px 188.571px;" id="elr717ay85xon" class="animable"></path><path d="M230.94,167.07a2.79,2.79,0,0,0-2.5,2.84h0l1.67,34.17c.07,4.46,6.59,7,11.36,6.86h0c4.83-1.14,5.73-3.85,5.53-8.09-.1-2-.4-4.79-.39-4.75s6.09-1,7.33-9c.62-4,.41-10.44.06-15.73-.31-4.77-3.48-10.62-8.23-10.11Z" style="fill: rgb(214, 150, 118); transform-origin: 241.388px 187.087px;" id="elyiy77ge5eqd" class="animable"></path><path d="M251.36,178.55a1,1,0,0,1-1,1,1,1,0,0,1-1.06-.91,1,1,0,0,1,1-1A1,1,0,0,1,251.36,178.55Z" style="fill: rgb(38, 50, 56); transform-origin: 250.33px 178.595px;" id="el6m1p6k2gtfp" class="animable"></path><path d="M252.61,177c-.13.14-.9-.43-2-.43s-1.9.56-2,.42.07-.3.42-.55a2.68,2.68,0,0,1,1.61-.5,2.63,2.63,0,0,1,1.59.51C252.55,176.74,252.67,177,252.61,177Z" style="fill: rgb(38, 50, 56); transform-origin: 250.603px 176.481px;" id="elq9gcvf125pn" class="animable"></path><path d="M240.73,178.67a1,1,0,0,1-1,1,1,1,0,0,1-1.05-.92,1,1,0,0,1,1-1A1,1,0,0,1,240.73,178.67Z" style="fill: rgb(38, 50, 56); transform-origin: 239.705px 178.71px;" id="el9jieac2wdb9" class="animable"></path><path d="M241.72,177c-.12.14-.9-.43-2-.43s-1.9.56-2,.42.06-.3.42-.55a2.75,2.75,0,0,1,1.61-.5,2.63,2.63,0,0,1,1.59.51C241.67,176.74,241.78,177,241.72,177Z" style="fill: rgb(38, 50, 56); transform-origin: 239.713px 176.481px;" id="ely2ko4krvkgk" class="animable"></path><path d="M245.82,185.12a7.77,7.77,0,0,1,1.78-.33c.28,0,.55-.08.59-.28a1.43,1.43,0,0,0-.18-.83q-.4-1-.84-2.13A36.49,36.49,0,0,1,245.3,176a36.59,36.59,0,0,1,2.32,5.41c.27.75.54,1.46.79,2.14a1.62,1.62,0,0,1,.15,1.1.69.69,0,0,1-.46.41,1.73,1.73,0,0,1-.47.07A7.56,7.56,0,0,1,245.82,185.12Z" style="fill: rgb(38, 50, 56); transform-origin: 246.949px 180.59px;" id="elbz2thxj14gw" class="animable"></path><path d="M246.61,198.1A20.2,20.2,0,0,1,236,195.28s2.9,5.59,10.85,4.83Z" style="fill: rgb(170, 101, 80); transform-origin: 241.425px 197.731px;" id="el4fcu2vf6ubl" class="animable"></path><path d="M245.64,187.78a2.94,2.94,0,0,0-2.1-1.39,1.26,1.26,0,0,0-1.24.69,2,2,0,0,0,.18,1.82,1.68,1.68,0,0,0,1.66.81,2.75,2.75,0,0,0,1.37-.9.93.93,0,0,0,.28-.39.63.63,0,0,0-.09-.57" style="fill: rgb(170, 101, 80); transform-origin: 243.991px 188.054px;" id="elfq5zlzkhkgv" class="animable"></path><path d="M242.59,185.88c.18,0,.19,1.18,1.21,2s2.29.71,2.3.87-.29.23-.82.25a3,3,0,0,1-1.92-.66,2.59,2.59,0,0,1-.93-1.7C242.38,186.17,242.51,185.88,242.59,185.88Z" style="fill: rgb(38, 50, 56); transform-origin: 244.26px 187.44px;" id="elrwwl8oux5s8" class="animable"></path><path d="M242.35,174.52c-.14.29-1.22,0-2.51.07s-2.37.28-2.51,0c-.07-.13.14-.39.59-.64a4.37,4.37,0,0,1,3.82,0C242.19,174.13,242.41,174.39,242.35,174.52Z" style="fill: rgb(38, 50, 56); transform-origin: 239.838px 174.121px;" id="elv0arm8f7qzs" class="animable"></path><path d="M252.51,175.23c-.24.25-1.18,0-2.31,0s-2.09.16-2.3-.1,0-.38.47-.61a4,4,0,0,1,3.72.1C252.48,174.86,252.61,175.11,252.51,175.23Z" style="fill: rgb(38, 50, 56); transform-origin: 250.18px 174.725px;" id="eldql3nafuqqv" class="animable"></path><path d="M244.58,158.62a2.4,2.4,0,0,0,.87-3c.33-.47-.06-1.17-.6-1.36a2.84,2.84,0,0,0-1.7.11c.15-.27-.25-.49-.55-.54l-2.1-.34a3.29,3.29,0,0,0,2.2-1.87,5.14,5.14,0,0,0,.3-2.93,1.05,1.05,0,0,0-.38-.75,7.86,7.86,0,0,0-1.46,2.46,2.08,2.08,0,0,0-1.51.76.57.57,0,0,0-.86-.24c-.44-1.24-1.29-2.55-2.6-2.7.41-.58-.33-1.27-1-1.59a4,4,0,0,0-1.46-.51,1.4,1.4,0,0,0-1.34.61.86.86,0,0,0,.49,1.24,1.44,1.44,0,0,0-.51,1.7,1.44,1.44,0,0,0-1.73-.35,5.5,5.5,0,0,0-2.89-.42,1.3,1.3,0,0,0-.71.25c-.15.12-.24.3-.4.41a1.41,1.41,0,0,1-.78.21,3.11,3.11,0,0,0-1.75.64,1.51,1.51,0,0,0-.47,1.69c-1.45.47-2.89-1.19-4.38-.9a2.91,2.91,0,0,0-1.87,1.79,5.06,5.06,0,0,0,2.34.34,1,1,0,0,0,1,.77.59.59,0,0,0,.34.91,5.22,5.22,0,0,0-2.8,0c-1.39.33-2.93,1.07-3.25,2.47a4.78,4.78,0,0,0,0,1.51c.09.76.48,1.75,1.22,1.61.46-.09.7-.58,1-1a4,4,0,0,1,2.43-1.76c.36.35-.3.79-.59,1.2s-.17.94-.24,1.43a7.28,7.28,0,0,1-1,2c-.7,1.45-.33,3.17,0,4.74.1.43.59,1,.85.6a1.19,1.19,0,0,0-.89,1.21,3.51,3.51,0,0,0,.51,1.54.83.83,0,0,0,.46.49c.33.07.6-.26.77-.54l1.43-2.35a3.55,3.55,0,0,0,0,1.62,3,3,0,0,0,1.85,2.38,4.08,4.08,0,0,0,2.13-.16" style="fill: rgb(38, 50, 56); transform-origin: 230.312px 159.171px;" id="el5u20yllobth" class="animable"></path><path d="M228.93,183.34c.31-.13,1.55.38,1.76.12,1-1.35,1.6-5.2,1.86-6.88s-.8-3.56-.64-5.25a6.58,6.58,0,0,1,1.28-3.81,4.88,4.88,0,0,1,2.06-1.32,7.94,7.94,0,0,1,7.21,1,6,6,0,0,0,2.7,1.51A5,5,0,0,0,248,167.6,3.29,3.29,0,0,1,251,167a2.86,2.86,0,0,1,.93.77,13.73,13.73,0,0,1,2,5.29,10.92,10.92,0,0,0-.47-5.77,14.06,14.06,0,0,0-10.92-8.09c-9.4-1.53-13.8,3.7-15.47,7.44a19.93,19.93,0,0,0-.79,9.05A23.43,23.43,0,0,0,228.93,183.34Z" style="fill: rgb(38, 50, 56); transform-origin: 240.099px 171.231px;" id="elophjyxczo0j" class="animable"></path><path d="M226.41,168a26.65,26.65,0,0,0,1.46-2.52,17.76,17.76,0,0,1,1.86-2.48,11,11,0,0,1,2.88-2.35,11.21,11.21,0,0,1,3.53-1.15,12.55,12.55,0,0,1,3.07-.11c1.76.16,2.82.56,2.87.42s-.21-.23-.68-.45a8.89,8.89,0,0,0-2.1-.63,11.23,11.23,0,0,0-3.28-.1,11,11,0,0,0-3.86,1.19,10.83,10.83,0,0,0-3.09,2.6,14.79,14.79,0,0,0-1.78,2.73C226.46,166.79,226.3,167.94,226.41,168Z" style="fill: rgb(94, 166, 255); transform-origin: 234.233px 163.277px;" id="elj4gaxjxsgxi" class="animable"></path><path d="M235.59,159.8a3.35,3.35,0,0,0,.57.07,12.37,12.37,0,0,1,1.52.26,11.27,11.27,0,0,1,7.72,6.13,12.33,12.33,0,0,1,.6,1.44,2.45,2.45,0,0,0,.19.53s0,0,0-.14,0-.24-.1-.42a10.9,10.9,0,0,0-.54-1.46,11,11,0,0,0-7.82-6.21,8.59,8.59,0,0,0-1.55-.2h-.57Z" style="fill: rgb(69, 90, 100); transform-origin: 240.89px 164.015px;" id="eljls3sc5idyb" class="animable"></path><path d="M233.09,160.94a11.18,11.18,0,0,0,1.1.6,25.6,25.6,0,0,1,2.56,1.58,24.22,24.22,0,0,1,2.36,1.88c.58.51.92.85.94.83a1.17,1.17,0,0,0-.21-.27c-.14-.16-.36-.39-.64-.66a19,19,0,0,0-2.34-1.94,19.5,19.5,0,0,0-2.61-1.54c-.35-.17-.64-.3-.84-.38A1.1,1.1,0,0,0,233.09,160.94Z" style="fill: rgb(69, 90, 100); transform-origin: 236.57px 163.385px;" id="el0xygfzg6bt6i" class="animable"></path><path d="M228,165.16a1.44,1.44,0,0,0,0,.31,7.78,7.78,0,0,0,.15.85A14.64,14.64,0,0,0,229,169a14.38,14.38,0,0,0,1.39,2.47c.21.3.39.53.52.68s.21.24.22.23a11.47,11.47,0,0,0-.63-1,18.05,18.05,0,0,1-1.33-2.48,19,19,0,0,1-.91-2.64A9.61,9.61,0,0,0,228,165.16Z" style="fill: rgb(69, 90, 100); transform-origin: 229.561px 168.77px;" id="elgt48428eiyb" class="animable"></path><path d="M230.62,176.52s-.38-.46-.93-1.25a14.58,14.58,0,0,1-.87-1.45,17,17,0,0,1-.8-1.9,16.22,16.22,0,0,1-.49-2,12.55,12.55,0,0,1-.16-1.68c0-1,0-1.56,0-1.57a1.37,1.37,0,0,0-.07.42,8.15,8.15,0,0,0-.07,1.15,12.47,12.47,0,0,0,.13,1.71,13.14,13.14,0,0,0,.48,2,13.33,13.33,0,0,0,.83,1.93,12.36,12.36,0,0,0,.91,1.45,8.28,8.28,0,0,0,.74.88A1.7,1.7,0,0,0,230.62,176.52Z" style="fill: rgb(69, 90, 100); transform-origin: 228.925px 171.595px;" id="elt8iuupina6q" class="animable"></path><path d="M212.38,165.84l.21,0,.62.09a6.28,6.28,0,0,0,2.28-.09,3.41,3.41,0,0,0,1.41-.73,2.36,2.36,0,0,0,.82-1.63,2,2,0,0,0-.18-1,1.75,1.75,0,0,0-.73-.77,2.2,2.2,0,0,0-2.14,0,1,1,0,0,0,0,1.85,2.09,2.09,0,0,0,1,.16,5.28,5.28,0,0,0,1-.16,5.11,5.11,0,0,0,2.78-1.89,5,5,0,0,0,.91-2.09,5,5,0,0,0,.07-.62.67.67,0,0,0,0-.21,7.19,7.19,0,0,1-.13.82,5.35,5.35,0,0,1-.94,2,5.08,5.08,0,0,1-2.73,1.8,4.85,4.85,0,0,1-.94.15,1.91,1.91,0,0,1-1-.15.89.89,0,0,1-.54-.73.94.94,0,0,1,.51-.79,2.09,2.09,0,0,1,2,0,1.65,1.65,0,0,1,.82,1.59,2.18,2.18,0,0,1-.74,1.52,3.42,3.42,0,0,1-1.35.72,6.56,6.56,0,0,1-2.24.15l-.61-.05A.53.53,0,0,0,212.38,165.84Z" style="fill: rgb(38, 50, 56); transform-origin: 216.409px 162.372px;" id="el8n9mw51bdvn" class="animable"></path><path d="M249.13,148.66a3.68,3.68,0,0,1,.2.72,2.47,2.47,0,0,1-.55,1.9,2.72,2.72,0,0,1-2.72.82,1.73,1.73,0,0,1-1.27-1.06,1,1,0,0,1,.13-.84.7.7,0,0,1,.76-.32,1,1,0,0,1,.65.58,1.21,1.21,0,0,1,0,.88,3.11,3.11,0,0,1-1.08,1.37,5.43,5.43,0,0,1-2.79,1.09,5.6,5.6,0,0,1-2-.19c-.47-.13-.71-.26-.72-.24a.65.65,0,0,0,.17.1,3.6,3.6,0,0,0,.53.21,5.31,5.31,0,0,0,2.07.25,5.53,5.53,0,0,0,2.89-1.09,3.22,3.22,0,0,0,1.15-1.45,1.34,1.34,0,0,0,0-1,1.21,1.21,0,0,0-.78-.7.9.9,0,0,0-1,.4,1.22,1.22,0,0,0-.15,1,1.48,1.48,0,0,0,.57.79,2.52,2.52,0,0,0,.83.39,2.87,2.87,0,0,0,2.88-.9,2.56,2.56,0,0,0,.52-2,2.24,2.24,0,0,0-.18-.54A.65.65,0,0,0,249.13,148.66Z" style="fill: rgb(38, 50, 56); transform-origin: 244.597px 151.303px;" id="elgp8r5o9ul4g" class="animable"></path><path d="M230.88,182.17a2.41,2.41,0,0,0-3.53-2c-.84.48-1.48,1.45-1.4,3.32.2,5,5.16,3.75,5.17,3.61S231,184.23,230.88,182.17Z" style="fill: rgb(214, 150, 118); transform-origin: 228.532px 183.616px;" id="eluuxazf7fql" class="animable"></path><path d="M229.52,185.22s-.09.07-.23.14a.86.86,0,0,1-.65,0,2.16,2.16,0,0,1-1.07-1.89,2.84,2.84,0,0,1,.19-1.25,1,1,0,0,1,.62-.69.45.45,0,0,1,.53.22c.07.13,0,.23.07.24s.1-.09.05-.29a.52.52,0,0,0-.21-.31.64.64,0,0,0-.48-.1,1.24,1.24,0,0,0-.88.81,3,3,0,0,0-.24,1.4,2.26,2.26,0,0,0,1.36,2.1.91.91,0,0,0,.78-.17C229.51,185.34,229.53,185.23,229.52,185.22Z" style="fill: rgb(170, 101, 80); transform-origin: 228.368px 183.452px;" id="el0afhl067rlib" class="animable"></path><path d="M257.11,201.59s3.9,2.16,7.59,4.23c4,2.25,14,6.52,14,6.52L298,196.15l5.52,5.6s-16,26.7-20.91,27.27-18.15-5.9-18.15-5.9Z" style="fill: rgb(94, 166, 255); transform-origin: 280.315px 212.603px;" id="elvaf5xew72o" class="animable"></path><path d="M264.63,219.43c-.5-2.15-7.52-17.84-7.52-17.84l-10.24-.76s1,15.3-16.85,0l-2.14,1.77s-11.47,8.69-12.35,10.33,11.57,29.59,12.07,33.37-4.4,20.58-3.27,22.35h40.34l.59-11.9S265.14,221.57,264.63,219.43Z" style="fill: rgb(94, 166, 255); transform-origin: 240.373px 234.74px;" id="elvebjfa9wl18" class="animable"></path><path d="M217.54,268.13s-8.74-.55-8.61-12.52,2.17-33.36,2.36-34.66a15,15,0,0,1,4.24-8c1.71-1,7.94-2.77,9.83,4.16a47.55,47.55,0,0,1,1.43,13.85L225,249.42l18.1-9,3.17,9.52S225.86,268.13,217.54,268.13Z" style="fill: rgb(94, 166, 255); transform-origin: 227.599px 240.057px;" id="el8ztpzrta3fu" class="animable"></path><path d="M211.29,221a1.33,1.33,0,0,1,0,.35q0,.39-.09,1c-.08.94-.19,2.29-.33,4-.28,3.48-.69,8.52-1.09,14.74-.19,3.12-.39,6.53-.51,10.2,0,.91,0,1.84-.08,2.79,0,.47,0,.95,0,1.43s0,1,.05,1.44a14.74,14.74,0,0,0,1.32,5.74,9.33,9.33,0,0,0,4.24,4.34,7.18,7.18,0,0,0,3,.83,10.77,10.77,0,0,0,3.16-.71,36.63,36.63,0,0,0,6.09-3c2-1.19,3.93-2.49,5.87-3.87,4.74-3.38,9.15-6.94,13.21-10.48l-.07.27q-1.65-4.94-3.17-9.53l.34.14-17.83,8.76-.29.14,0-.33c.5-6.81.9-12.34,1.18-16.2.16-1.89.27-3.37.36-4.41,0-.48.07-.86.1-1.14s.05-.39.05-.39a2.29,2.29,0,0,1,0,.39c0,.29,0,.67-.06,1.15-.05,1-.14,2.52-.24,4.41-.25,3.87-.59,9.4-1,16.22l-.27-.19L243,240.24l.25-.12.09.26q1.53,4.59,3.18,9.52l.06.16-.13.11c-4.07,3.56-8.48,7.13-13.24,10.53-1.94,1.38-3.91,2.69-5.91,3.88a36.93,36.93,0,0,1-6.18,3.05,11.42,11.42,0,0,1-3.32.74,8,8,0,0,1-3.25-.89,9.84,9.84,0,0,1-4.44-4.58,15.28,15.28,0,0,1-1.35-5.93c0-.49,0-1-.05-1.46s0-1,0-1.44c0-.95.06-1.88.08-2.8.15-3.67.37-7.09.59-10.2.44-6.23.9-11.26,1.25-14.74.18-1.71.33-3.05.43-4l.13-1A1.79,1.79,0,0,1,211.29,221Z" style="fill: rgb(38, 50, 56); transform-origin: 227.634px 244.685px;" id="elh35aap9jt98" class="animable"></path><path d="M226.17,222.13c-.09,0,0-.89-.41-2.23a8.44,8.44,0,0,0-7.82-6.35c-1.39-.09-2.25.14-2.27,0a4.83,4.83,0,0,1,2.28-.42,8.26,8.26,0,0,1,8.17,6.63A4.63,4.63,0,0,1,226.17,222.13Z" style="fill: rgb(38, 50, 56); transform-origin: 220.985px 217.626px;" id="el1c5416rv0jw" class="animable"></path><path d="M259,208.42a4.11,4.11,0,0,0-2.86-.65,4.43,4.43,0,0,0-2.84,1.07,3.58,3.58,0,0,0-.94,2.39,8.78,8.78,0,0,0,.39,2.58,70.64,70.64,0,0,0,2.79,7.24l3.92-.34a47.78,47.78,0,0,0,.78-8.35C260.24,210.93,260.09,209.31,259,208.42Z" style="fill: rgb(38, 50, 56); transform-origin: 256.3px 214.39px;" id="elnpm6bnusts" class="animable"></path><g id="elfn38g1c4g7h"><rect x="258.49" y="228.47" width="3.07" height="21.69" rx="1.35" style="fill: rgb(38, 50, 56); transform-origin: 260.025px 239.315px; transform: rotate(-8.18deg);" class="animable"></rect></g><g id="elro0gavrphl"><rect x="249.34" y="220.61" width="13.04" height="10.72" style="fill: rgb(38, 50, 56); transform-origin: 255.86px 225.97px; transform: rotate(-7.48089deg);" class="animable"></rect></g><path d="M259.64,210.49a6.37,6.37,0,0,1-3.46,1.16,6.51,6.51,0,0,1-3.63-.42c0-.16,1.63.11,3.58-.1S259.58,210.35,259.64,210.49Z" style="fill: rgb(69, 90, 100); transform-origin: 256.095px 211.106px;" id="el1jipa3mgnhb" class="animable"></path><path d="M259.73,213a5.46,5.46,0,0,1-3.36,1.22,5.54,5.54,0,0,1-3.52-.61c.05-.16,1.58.27,3.48.09S259.66,212.9,259.73,213Z" style="fill: rgb(69, 90, 100); transform-origin: 256.29px 213.639px;" id="eluf26p5c8epp" class="animable"></path><g id="el6ps1tabmugq"><rect x="252.35" y="220.24" width="13.04" height="10.72" style="fill: rgb(69, 90, 100); transform-origin: 258.87px 225.6px; transform: rotate(-7.6deg);" class="animable"></rect></g><path d="M260.57,223.65l.44,3.45-.95.12-1.51-1.4.2,1.57-1.13.14-.44-3.44.95-.13,1.51,1.4-.2-1.56Z" style="fill: rgb(255, 255, 255); transform-origin: 259.095px 225.59px;" id="elg0h25ij4too" class="animable"></path><path d="M243.71,241.42l5.46-5,3.83-4.1s7.41-2,8.71-1.19c.92.57.47,2,.47,2s1.44-.43,1.86.53a1.82,1.82,0,0,1-.63,2.5l-3,1.07s3-.23,3.71.22a1.4,1.4,0,0,1,.06,2.14l-2.47,1s2.26-.36,2.6.26.5,1.76-.37,2.23-4,1.87-4,1.87S253,247.73,252,248s-5.54,1.91-5.54,1.91Z" style="fill: rgb(214, 150, 118); transform-origin: 254.179px 240.423px;" id="elhb6gy56ww2" class="animable"></path><path d="M262.23,240.46c0,.14-.79.45-1.85.71s-1.93.34-2,.2.79-.46,1.84-.71S262.19,240.32,262.23,240.46Z" style="fill: rgb(170, 101, 80); transform-origin: 260.303px 240.916px;" id="elhn5s4j0fpy" class="animable"></path><path d="M262.07,233.12a4.9,4.9,0,0,1-2.21.74,4.63,4.63,0,0,1-2.33.07,6.37,6.37,0,0,1,2.23-.59A6,6,0,0,1,262.07,233.12Z" style="fill: rgb(170, 101, 80); transform-origin: 259.8px 233.568px;" id="el29kzgwmds" class="animable"></path><path d="M260.9,237.18c0,.14-.49.38-1.19.53s-1.28.15-1.3,0,.51-.38,1.19-.52S260.87,237,260.9,237.18Z" style="fill: rgb(170, 101, 80); transform-origin: 259.655px 237.443px;" id="el0h8wwaurz1nu" class="animable"></path></g><g id="freepik--Sofa--inject-18" class="animable animator-active" style="transform-origin: 247.916px 426.33px;"><path d="M68.5,378.37H434a27.5,27.5,0,0,1,27.5,27.5V474.1a0,0,0,0,1,0,0H37.83a0,0,0,0,1,0,0V409A30.67,30.67,0,0,1,68.5,378.37Z" style="fill: rgb(69, 90, 100); transform-origin: 249.665px 426.235px;" id="elokfyyq62izr" class="animable"></path><rect x="26.22" y="402.31" width="443.55" height="71.8" rx="5.64" style="fill: rgb(69, 90, 100); transform-origin: 247.995px 438.21px;" id="el95zhj8x245o" class="animable"></rect><path d="M464.13,474.1a5.93,5.93,0,0,0,2.53-.63,5.65,5.65,0,0,0,2.31-2.19,5.56,5.56,0,0,0,.68-1.95,18.26,18.26,0,0,0,.07-2.38c0-6.81,0-16.84-.05-29.75,0-6.46,0-13.64,0-21.5q0-2.94,0-6a13,13,0,0,0-.17-3.06,5.47,5.47,0,0,0-4.28-4.07,21.77,21.77,0,0,0-3.25-.1h-6.77l-62.33,0-360.95.08a5.39,5.39,0,0,0-5,3.26,5.61,5.61,0,0,0-.4,1.51c-.05.51,0,1.07,0,1.62v58.33a7.9,7.9,0,0,0,.34,3,5.42,5.42,0,0,0,4.57,3.48l25.12,0h95.83l162.28.06L424,474l29.74.05,7.74,0c1.74,0,2.63,0,2.63,0l-2.63,0-7.74,0L424,474.2l-109.4.09-162.28,0-95.83,0-25.17,0a5.93,5.93,0,0,1-5-3.81,8.36,8.36,0,0,1-.38-3.23V409c0-.55,0-1.1,0-1.68a6.36,6.36,0,0,1,.44-1.66,5.93,5.93,0,0,1,5.45-3.57l361,.07,62.33,0h6.77a22.8,22.8,0,0,1,3.3.11,5.79,5.79,0,0,1,4.49,4.28,13.2,13.2,0,0,1,.17,3.12v6c0,7.86,0,15,0,21.5,0,12.91,0,22.94,0,29.75a18.55,18.55,0,0,1-.09,2.4,5.9,5.9,0,0,1-.7,2,5.64,5.64,0,0,1-2.36,2.2,5.74,5.74,0,0,1-1.88.55A5.6,5.6,0,0,1,464.13,474.1Z" style="fill: rgb(38, 50, 56); transform-origin: 247.916px 438.19px;" id="el12fwrtsh2qj" class="animable"></path><path d="M318.46,402.06a36.34,36.34,0,0,1-.74-8.66,18.35,18.35,0,0,1,.63,4.31A17.57,17.57,0,0,1,318.46,402.06Z" style="fill: rgb(38, 50, 56); transform-origin: 318.122px 397.73px;" id="eloliqkl9rpkm" class="animable"></path><path d="M167.52,384.89a74.1,74.1,0,0,1,.26,8.71,74.1,74.1,0,0,1-.26,8.71,74.1,74.1,0,0,1-.26-8.71A74.1,74.1,0,0,1,167.52,384.89Z" style="fill: rgb(38, 50, 56); transform-origin: 167.52px 393.6px;" id="elvctkiuo19d8" class="animable"></path><path d="M64.55,473.87c-.14,0-.26-15.78-.26-35.25s.12-35.24.26-35.24.26,15.78.26,35.24S64.69,473.87,64.55,473.87Z" style="fill: rgb(38, 50, 56); transform-origin: 64.55px 438.625px;" id="eljr99v2039tk" class="animable"></path><path d="M424.47,473.87c-.14,0-.26-15.78-.26-35.25s.12-35.24.26-35.24.26,15.78.26,35.24S424.62,473.87,424.47,473.87Z" style="fill: rgb(38, 50, 56); transform-origin: 424.47px 438.625px;" id="el4vpqxoitsmx" class="animable"></path></g><g id="freepik--Characters--inject-18" class="animable" style="transform-origin: 250.745px 322.172px;"><path d="M184.46,369.93s3.54-3.75,6.5-5.2,20.82-3.9,20.82-3.9h30.36s18.83,3.71,22,7.42,9.29,14.86,9.29,14.86l-68.65,5.2Z" style="fill: rgb(38, 50, 56); transform-origin: 228.945px 374.57px;" id="elv8o71x54sk" class="animable"></path><path d="M210.52,347.16a23.58,23.58,0,0,1,.63,14.71A26.86,26.86,0,0,0,226,365.53,68.61,68.61,0,0,0,241.19,363l-2.13-19" style="fill: rgb(255, 190, 157); transform-origin: 225.855px 354.78px;" id="el6zkyi6mag5t" class="animable"></path><path d="M203.43,330.35a1.92,1.92,0,0,0-2.26-.79,2.72,2.72,0,0,0-1.64,1.89,5,5,0,0,0,.11,2.57,16.24,16.24,0,0,0,2,4.08,4.33,4.33,0,0,0,1.81,1.9c.82.35,2,0,2.11-.92" style="fill: rgb(255, 190, 157); transform-origin: 202.486px 334.793px;" id="eltmjp1st5m4q" class="animable"></path><path d="M244.75,341.56a1.13,1.13,0,0,0,1.66.25,3.19,3.19,0,0,0,1-1.63l2.26-6.43a6,6,0,0,0,.5-2.53,2.07,2.07,0,0,0-1.5-1.89c-1.13-.21-2.07.88-2.61,1.89a16.33,16.33,0,0,0-1.75,10.13" style="fill: rgb(255, 190, 157); transform-origin: 247.15px 335.685px;" id="elrfiaoza5f6e" class="animable"></path><path d="M215.67,298a23.12,23.12,0,0,0-15,29.62c.65-1,1.29-1.93,1.93-2.89a30.83,30.83,0,0,0,4.24,19.36c1.74,2.85,4.05,5.5,7.11,6.83s6.5,1.21,9.81,1.06c3.62-.16,7.25-.34,10.87-.54a11,11,0,0,0,4.84-1,9.71,9.71,0,0,0,3.51-4.18,39.31,39.31,0,0,0,4.51-18.74c.18.59.37,1.18.55,1.77a6.07,6.07,0,0,0,1.93-4.31c.08.55.17,1.1.26,1.65A23.4,23.4,0,0,0,222,294.86a12.77,12.77,0,0,0-6,3.46" style="fill: rgb(38, 50, 56); transform-origin: 225.798px 322.961px;" id="el395jup7l0p" class="animable"></path><path d="M208.76,329.07a10.11,10.11,0,0,1-2.74-7.59c.15,0,.3,1.81,1.07,3.9S208.88,329,208.76,329.07Z" style="fill: rgb(69, 90, 100); transform-origin: 207.384px 325.275px;" id="el5h0mrxliya4" class="animable"></path><path d="M212.87,328.29a5.81,5.81,0,0,1-2.29-2.47,5.89,5.89,0,0,1-1.05-3.2c.15,0,.58,1.39,1.5,2.94S213,328.18,212.87,328.29Z" style="fill: rgb(69, 90, 100); transform-origin: 211.205px 325.455px;" id="ely85gf888xpg" class="animable"></path><path d="M240.46,320.17a9.56,9.56,0,0,1-3.11,8.94,23.31,23.31,0,0,0,2.25-4.23A24.56,24.56,0,0,0,240.46,320.17Z" style="fill: rgb(69, 90, 100); transform-origin: 238.985px 324.64px;" id="el0jck90i5t6n" class="animable"></path><path d="M243.63,319.8a11.7,11.7,0,0,1-1.82,8.56c-.14-.08.74-1.85,1.24-4.21S243.47,319.81,243.63,319.8Z" style="fill: rgb(69, 90, 100); transform-origin: 242.801px 324.08px;" id="elva30v5se4ej" class="animable"></path><path d="M247.49,318.51a7.26,7.26,0,0,1,.4,4,7.1,7.1,0,0,1-1.37,3.8c-.15-.06.6-1.7.86-3.87S247.33,318.54,247.49,318.51Z" style="fill: rgb(69, 90, 100); transform-origin: 247.254px 322.41px;" id="elked0p3kbcj" class="animable"></path><path d="M217.27,329.46a7,7,0,0,1-2.23-2.23,6.92,6.92,0,0,1-1.48-2.79,16.12,16.12,0,0,1,1.9,2.48A15.53,15.53,0,0,1,217.27,329.46Z" style="fill: rgb(69, 90, 100); transform-origin: 215.415px 326.95px;" id="el4jpbryz1y5" class="animable"></path><path d="M220.25,328.53a5.06,5.06,0,0,1-2.19-1.79,5,5,0,0,1-1.34-2.48,16.68,16.68,0,0,1,1.74,2.15A17.29,17.29,0,0,1,220.25,328.53Z" style="fill: rgb(69, 90, 100); transform-origin: 218.485px 326.395px;" id="ely51vlaphe9q" class="animable"></path><path d="M218,338c-.09.1-.94-.51-1.64-1.58s-.93-2.09-.79-2.13.56.84,1.23,1.85S218.12,337.89,218,338Z" style="fill: rgb(69, 90, 100); transform-origin: 216.773px 336.15px;" id="eleq8pf4809mt" class="animable"></path><path d="M220.61,337.82a5.77,5.77,0,0,1-3.51-4.28c.14-.05.65,1.09,1.61,2.26S220.69,337.69,220.61,337.82Z" style="fill: rgb(69, 90, 100); transform-origin: 218.857px 335.679px;" id="elntlg7mx15d" class="animable"></path><path d="M233.85,335.05a8.06,8.06,0,0,1-1,2.71,8,8,0,0,1-1.44,2.49,16,16,0,0,1,2.41-5.2Z" style="fill: rgb(69, 90, 100); transform-origin: 232.63px 337.65px;" id="el9b3nqax5ky" class="animable"></path><path d="M236.42,336.15a16.44,16.44,0,0,1-2,5.39,8.22,8.22,0,0,1,.78-2.79A8,8,0,0,1,236.42,336.15Z" style="fill: rgb(69, 90, 100); transform-origin: 235.42px 338.845px;" id="eltxx12ltwz1k" class="animable"></path><path d="M98.26,333.26S84.34,332,78.19,334.48s-6.8,3.26-10,6.91-5,10.56-5.61,14.71-1.46,22.33-1.46,22.33l90.77,2.17,12.16-29.87-10.27-4.9a43.59,43.59,0,0,0-16.46-4.21l-7.64-.42Z" style="fill: rgb(94, 166, 255); transform-origin: 112.585px 356.77px;" id="elr4ct186qosd" class="animable"></path><g id="el88nu9xta0qa"><g style="opacity: 0.3; transform-origin: 112.585px 356.865px;" class="animable"><path d="M98.26,333.26S84.34,332,78.19,334.48s-6.8,3.26-10,6.91-5,10.56-5.61,14.71-1.46,22.33-1.46,22.33l92.51,2.36,10.42-30.06-10.27-4.9a43.59,43.59,0,0,0-16.46-4.21l-7.64-.42Z" id="elr9hsbodfkyp" class="animable" style="transform-origin: 112.585px 356.865px;"></path></g></g><path d="M164.09,350.73l36.7,15.45,17.92,4.15s9.4,7.62,7.38,11.42-10.74,11.87-16.79,12.09-66-15.47-66-15.47l19.81-28.1" style="fill: rgb(94, 166, 255); transform-origin: 184.837px 372.056px;" id="elz765uzxm0ye" class="animable"></path><g id="elei6qd8s1mrh"><g style="opacity: 0.3; transform-origin: 184.816px 372.056px;" class="animable"><path d="M218.71,370.33l-17.92-4.15-36.7-15.45-1-.46-19.81,28.1s59.94,15.7,66,15.47,14.78-8.28,16.79-12.09S218.71,370.33,218.71,370.33Z" id="elbkk2nm20tv" class="animable" style="transform-origin: 184.816px 372.056px;"></path></g></g><path d="M78.64,378.89a3.87,3.87,0,0,1-.32-1c-.17-.67-.4-1.64-.66-2.84-.53-2.4-1.19-5.73-1.85-9.42s-1.2-7-1.53-9.48c-.17-1.21-.3-2.2-.37-2.88a3.78,3.78,0,0,1,0-1.07,4.56,4.56,0,0,1,.25,1c.15.78.32,1.74.53,2.86.45,2.54,1,5.82,1.68,9.44s1.24,6.9,1.7,9.44c.19,1.12.36,2.08.5,2.87A4.56,4.56,0,0,1,78.64,378.89Z" style="fill: rgb(38, 50, 56); transform-origin: 76.2593px 365.545px;" id="el3hwgvbn399y" class="animable"></path><path d="M147.41,374.57a4.47,4.47,0,0,1-.54-1,19.49,19.49,0,0,1-1.06-2.85,22.21,22.21,0,0,1,3.32-19.17,19.16,19.16,0,0,1,2-2.32,4.37,4.37,0,0,1,.84-.74c.07.07-1.08,1.17-2.5,3.27a23.31,23.31,0,0,0-3.27,18.86C146.79,373.11,147.5,374.53,147.41,374.57Z" style="fill: rgb(38, 50, 56); transform-origin: 148.453px 361.53px;" id="elokibhmz4s1" class="animable"></path><path d="M76.25,367.55a55.75,55.75,0,0,1-7.53.62,52.85,52.85,0,0,1-7.56.11,57.1,57.1,0,0,1,7.53-.63A53.66,53.66,0,0,1,76.25,367.55Z" style="fill: rgb(250, 250, 250); transform-origin: 68.705px 367.914px;" id="el4w9ts23yrmi" class="animable"></path><path d="M144.82,360.41c0,.14-15.6,0-34.84-.2s-34.83-.58-34.83-.73,15.6-.05,34.84.21S144.82,360.26,144.82,360.41Z" style="fill: rgb(250, 250, 250); transform-origin: 109.985px 359.938px;" id="elu1aetkjv4in" class="animable"></path><path d="M155.46,380.45a5.13,5.13,0,0,1,.56-1.06c.39-.67.94-1.64,1.56-2.87a75,75,0,0,0,4.13-9.92,80.18,80.18,0,0,0,2.76-10.39c.27-1.35.44-2.45.55-3.22a5.6,5.6,0,0,1,.23-1.18,4.68,4.68,0,0,1,0,1.21c-.05.77-.17,1.89-.39,3.25a64.19,64.19,0,0,1-2.63,10.5,59.86,59.86,0,0,1-4.3,9.92,31.16,31.16,0,0,1-1.71,2.81A5.22,5.22,0,0,1,155.46,380.45Z" style="fill: rgb(250, 250, 250); transform-origin: 160.375px 366.13px;" id="elxwtyj2z9xys" class="animable"></path><path d="M171.48,385.56a4.68,4.68,0,0,1,.63-1l.67-1.2.78-1.64a75,75,0,0,0,3.43-10,63.27,63.27,0,0,0,2-10.36c0-.67.07-1.28.08-1.81s0-1-.05-1.37a5.8,5.8,0,0,1-.14-1.17,5.65,5.65,0,0,1,.34,1.14c.05.38.09.85.14,1.39s0,1.16,0,1.84a54,54,0,0,1-1.85,10.47,60.07,60.07,0,0,1-3.59,10c-.31.61-.61,1.15-.86,1.63l-.76,1.17A5.79,5.79,0,0,1,171.48,385.56Z" style="fill: rgb(250, 250, 250); transform-origin: 175.431px 371.285px;" id="elucv1uwhg9e8" class="animable"></path><path d="M150.05,378.89a4.23,4.23,0,0,1-.73.08l-2.1.11c-.91.06-2,.1-3.33.11s-2.78.06-4.41,0c-6.55,0-15.58-.41-25.52-1.15S95,376.57,88.49,376.14c-3.26-.21-5.9-.38-7.72-.47l-2.1-.12a6.08,6.08,0,0,1-.73-.08,3.41,3.41,0,0,1,.73,0l2.11,0c1.83,0,4.47.14,7.73.31,6.54.33,15.54,1,25.49,1.78s18.95,1.21,25.48,1.3c1.63.05,3.11,0,4.41,0s2.41,0,3.32,0l2.11,0A3.41,3.41,0,0,1,150.05,378.89Z" style="fill: rgb(250, 250, 250); transform-origin: 113.995px 377.335px;" id="elq0w70cvccw" class="animable"></path><path d="M73.86,352.78c-.09.13-1.93-1.15-4.41-2.31s-4.63-1.77-4.59-1.92A12.82,12.82,0,0,1,69.67,350,13.05,13.05,0,0,1,73.86,352.78Z" style="fill: rgb(250, 250, 250); transform-origin: 69.3597px 350.67px;" id="elmhf1jcko1a" class="animable"></path><path d="M147.82,347.8a6.17,6.17,0,0,1-.76,0l-2.19-.21c-1.9-.19-4.65-.49-8-.89-6.78-.79-16.14-2-26.45-3.52s-19.61-3.09-26.33-4.3c-3.36-.61-6.08-1.11-8-1.48l-2.16-.44a4.28,4.28,0,0,1-.74-.19,3.9,3.9,0,0,1,.76.08l2.17.35,8,1.32c6.73,1.11,16,2.61,26.35,4.14s19.65,2.79,26.41,3.68l8,1.05,2.18.3A3.55,3.55,0,0,1,147.82,347.8Z" style="fill: rgb(250, 250, 250); transform-origin: 110.505px 342.291px;" id="elithetom3wof" class="animable"></path><path d="M152,319.66a7,7,0,0,0,5.71-1.51,13.93,13.93,0,0,0,3.68-4.81,5.08,5.08,0,0,0,.62-1.84,2,2,0,0,0-.69-1.74,2,2,0,0,0-1.91-.11,6.09,6.09,0,0,0-1.61,1.17c-2.23,2-4.53,4.17-5.62,7" style="fill: rgb(255, 190, 157); transform-origin: 157.011px 314.614px;" id="elxrmihw8omme" class="animable"></path><polygon points="133.21 341.39 143.32 321.75 124.24 313.67 107.69 334.94 129.72 341.2 133.21 341.39" style="fill: rgb(255, 190, 157); transform-origin: 125.505px 327.53px;" id="elzn32mnd8mco" class="animable"></polygon><path d="M147.2,269.43a23.42,23.42,0,0,0-17.34.39,35.49,35.49,0,0,0-13.93,10.74c-3.05,3.74-5.58,8-6.43,12.79-1.14,6.29.73,12.68,2.57,18.8,1.3,4.32,2.87,9,6.67,11.44a19.29,19.29,0,0,0,7.09,2.27c6.36,1.14,13.19,2.23,19-.49,4.31-2,7.47-5.82,10.47-9.52,3.74-4.6,7.54-9.29,9.74-14.79a29.65,29.65,0,0,0,1.55-16.69,20.57,20.57,0,0,0-6-11.42c-3.25-2.93-8-4.41-12.16-3.12" style="fill: rgb(38, 50, 56); transform-origin: 138.149px 297.513px;" id="elshqehzt6phe" class="animable"></path><path d="M136.15,305.32s-.07.3-.29.8-.56,1.2-1,2.06a41.63,41.63,0,0,1-9.61,11.68c-.75.62-1.37,1.1-1.82,1.41a3.11,3.11,0,0,1-.73.44,26.89,26.89,0,0,1,2.3-2.13A52.09,52.09,0,0,0,134.51,308C135.52,306.34,136.08,305.29,136.15,305.32Z" style="fill: rgb(69, 90, 100); transform-origin: 129.425px 313.515px;" id="elbz5qwygibxg" class="animable"></path><path d="M138.73,317.2a7.71,7.71,0,0,1-1.91,1.32,30.32,30.32,0,0,1-5.12,2.29,29.43,29.43,0,0,1-5.45,1.3,8.37,8.37,0,0,1-2.32.13c0-.17,3.51-.51,7.61-1.92S138.65,317.06,138.73,317.2Z" style="fill: rgb(69, 90, 100); transform-origin: 131.33px 319.731px;" id="el01d6x7cruak7" class="animable"></path><path d="M119.33,301.87a20.52,20.52,0,0,1-.27,2.84,66,66,0,0,0-.4,6.83c0,2.68.16,5.1.33,6.84a20.79,20.79,0,0,1,.24,2.84,12.55,12.55,0,0,1-.61-2.79,45.64,45.64,0,0,1-.48-6.89,44.1,44.1,0,0,1,.56-6.88A12.43,12.43,0,0,1,119.33,301.87Z" style="fill: rgb(69, 90, 100); transform-origin: 118.735px 311.545px;" id="elrh5x08vpnpr" class="animable"></path><path d="M152,294.25a18.49,18.49,0,0,0,3.18-3,13.16,13.16,0,0,0,2.21-4.13,12.54,12.54,0,0,0,.53-5.66,12.73,12.73,0,0,0-2.13-5.28,13.51,13.51,0,0,0-3.31-3.32,18.42,18.42,0,0,0-3.89-1.94,4.21,4.21,0,0,1,1.16.24,11.69,11.69,0,0,1,2.94,1.4,13.13,13.13,0,0,1,3.49,3.35,12.18,12.18,0,0,1,1.67,11.37,13,13,0,0,1-2.39,4.2,11.16,11.16,0,0,1-2.41,2.19A4.09,4.09,0,0,1,152,294.25Z" style="fill: rgb(69, 90, 100); transform-origin: 153.58px 282.585px;" id="elj8s7x5xz43" class="animable"></path><path d="M139.43,303.34a7.4,7.4,0,0,1,.88-1.11l2.51-2.92a44.53,44.53,0,0,0,7-10.49,21,21,0,0,0,1.6-12.29,19.48,19.48,0,0,0-1.8-4.89s.1.09.23.29a6.85,6.85,0,0,1,.56.89,13.7,13.7,0,0,1,1.37,3.63A20.53,20.53,0,0,1,150.28,289a41.23,41.23,0,0,1-7.18,10.52c-1.09,1.21-2,2.17-2.64,2.82A6.69,6.69,0,0,1,139.43,303.34Z" style="fill: rgb(69, 90, 100); transform-origin: 145.797px 287.49px;" id="elb1xc9i1xo0t" class="animable"></path><path d="M117.06,320.28a3,3,0,0,0-2.5,2.18,2.19,2.19,0,0,0,1.17,2.42c1.52.7,3.48-.51,4.93.33,1.15.66,1.4,2.32,2.51,3a2.46,2.46,0,0,0,3.07-.53,3.4,3.4,0,0,0,.57-3.2,5.7,5.7,0,0,0-2-2.7,8,8,0,0,0-8.82-1.18" style="fill: rgb(94, 166, 255); transform-origin: 120.748px 324.154px;" id="elxhh7b9c1sb" class="animable"></path><path d="M124.72,351.36c2.27-3,3.9-7,2.74-10.56-.9-2.8-3.36-5-3.86-7.88-.42-2.41.59-5-.28-7.27a4.61,4.61,0,0,0-7.2-2l0,0c-4.52,3.6-9.51,7.18-14,10.78-2.1,1.67-4.28,3.44-5.32,5.91-1.65,3.91,0,8.34,1.57,12.26a12.64,12.64,0,0,0,1.19-6.44c1,2.26.35,4.84-.44,7.15s-1.77,4.67-1.53,7.1c.44,4.52,4.94,8.08,4.7,12.61a21.71,21.71,0,0,1-1.14,4.52,5.58,5.58,0,0,0,.31,4.52,4.61,4.61,0,0,0,3.75,1.86,13.87,13.87,0,0,0,4.26-.78,7.21,7.21,0,0,1,.69-4.47,11.32,11.32,0,0,1,2,8.19c5.12-1.38,9.11-5.78,10.81-10.81s1.32-10.57-.18-15.66a10.37,10.37,0,0,1-.7-4.34C122.36,354.24,123.64,352.81,124.72,351.36Z" style="fill: rgb(38, 50, 56); transform-origin: 111.979px 354.751px;" id="elrq71yy5zow" class="animable"></path><path d="M111,368.72s.2-.64.6-1.77a39.73,39.73,0,0,0,1.39-4.88,21.39,21.39,0,0,0,.32-7.45c-.39-2.79-1.59-5.71-2.17-9a14,14,0,0,1,0-4.87,17.84,17.84,0,0,1,1.4-4.29,60.2,60.2,0,0,1,3.8-6.57,40,40,0,0,0,2.48-4.43c.51-1.09.73-1.72.77-1.71a1.55,1.55,0,0,1-.11.48c-.09.3-.24.75-.47,1.31a34.14,34.14,0,0,1-2.35,4.54,65,65,0,0,0-3.68,6.58,17.79,17.79,0,0,0-1.34,4.18,13.45,13.45,0,0,0,0,4.69c.55,3.2,1.75,6.15,2.12,9a21,21,0,0,1-.43,7.59,32.43,32.43,0,0,1-1.56,4.87c-.23.56-.42,1-.56,1.28S111,368.73,111,368.72Z" style="fill: rgb(69, 90, 100); transform-origin: 115.258px 346.235px;" id="eljx1e1nelhk" class="animable"></path><path d="M115.55,376.88s.34-.7.88-2a28.43,28.43,0,0,0,1.75-5.55,27.75,27.75,0,0,0,.43-8.59,30.51,30.51,0,0,0-1-5,24.24,24.24,0,0,1-1.06-5.46,8.54,8.54,0,0,1,.34-2.85,14.41,14.41,0,0,1,1.13-2.52,13.34,13.34,0,0,0,1-2.35,6.31,6.31,0,0,0,.19-2.4c-.16-1.6-.67-3.09-.9-4.55a11.39,11.39,0,0,1,.1-4.1,22.55,22.55,0,0,1,2.07-5.51c.32-.62.58-1.09.76-1.41a1.86,1.86,0,0,1,.3-.47,2.14,2.14,0,0,1-.21.52l-.66,1.45a23.61,23.61,0,0,0-1.89,5.49,10.92,10.92,0,0,0,0,4c.23,1.42.77,2.9,1,4.57a6.88,6.88,0,0,1-.19,2.58,13,13,0,0,1-1.06,2.46,14.68,14.68,0,0,0-1.09,2.43,8.25,8.25,0,0,0-.31,2.68,24.35,24.35,0,0,0,1,5.35,28.93,28.93,0,0,1,1,5.08,27.08,27.08,0,0,1-.54,8.72,25.8,25.8,0,0,1-1.93,5.56c-.3.62-.56,1.1-.75,1.41A2.38,2.38,0,0,1,115.55,376.88Z" style="fill: rgb(69, 90, 100); transform-origin: 118.545px 350.5px;" id="elmg9lu1rfcwl" class="animable"></path><path d="M124.44,374.46s.43-.57,1-1.72a10.87,10.87,0,0,0,1.12-5.21,10.72,10.72,0,0,0-.78-3.6,26.78,26.78,0,0,1-1.43-4.12,7.61,7.61,0,0,1,.72-4.79c.69-1.55,1.68-3,2.49-4.51a8.54,8.54,0,0,0,1.22-4.76,10.14,10.14,0,0,0-1.65-4.32c-.79-1.28-1.64-2.46-2.35-3.62a13.16,13.16,0,0,1-1.57-3.48,14.87,14.87,0,0,1-.18-5.48c.08-.64.16-1.14.22-1.47a1.8,1.8,0,0,1,.12-.51,2.05,2.05,0,0,1,0,.52c0,.4-.08.89-.13,1.48a15.79,15.79,0,0,0,.33,5.36,13.47,13.47,0,0,0,1.58,3.35c.72,1.14,1.58,2.3,2.4,3.6a10.59,10.59,0,0,1,1.75,4.53,9,9,0,0,1-1.27,5.05c-.83,1.57-1.82,3-2.49,4.47a7.16,7.16,0,0,0-.71,4.49,27.25,27.25,0,0,0,1.37,4.06,10.73,10.73,0,0,1-.57,9.06,8.94,8.94,0,0,1-.83,1.24C124.57,374.34,124.45,374.48,124.44,374.46Z" style="fill: rgb(38, 50, 56); transform-origin: 126.084px 350.666px;" id="elgofqydrdklt" class="animable"></path><path d="M99.63,344.11a5.12,5.12,0,0,1-.12-1.14c0-.74-.08-1.81,0-3.13a18.64,18.64,0,0,1,.72-4.6,10.07,10.07,0,0,1,3.08-4.82,17.81,17.81,0,0,1,5-2.79c1.62-.64,3.09-1.17,4.28-1.71a26.12,26.12,0,0,0,3.67-2.08,4.18,4.18,0,0,1-.83.79,16.14,16.14,0,0,1-2.68,1.62c-1.19.59-2.66,1.16-4.26,1.83a17.77,17.77,0,0,0-4.82,2.74,9.7,9.7,0,0,0-3,4.56,19.47,19.47,0,0,0-.81,4.48C99.67,342.47,99.72,344.11,99.63,344.11Z" style="fill: rgb(38, 50, 56); transform-origin: 107.867px 333.975px;" id="el01fany4e0tow" class="animable"></path><path d="M164.54,282s.11.12.26.37.38.64.63,1.15a23,23,0,0,1,1.7,4.5,25.18,25.18,0,0,1-5.46,23.12,31.6,31.6,0,0,1-5.34,4.73c-1.65,1.19-3,2.06-4,2.65a11.44,11.44,0,0,1-1.53.87,13,13,0,0,1,1.42-1c.93-.64,2.28-1.56,3.89-2.77a33.92,33.92,0,0,0,5.2-4.76,25.29,25.29,0,0,0,4.44-7.33,25,25,0,0,0,1.75-8.39,25.77,25.77,0,0,0-.72-7,27.63,27.63,0,0,0-1.53-4.5C164.8,282.52,164.5,282,164.54,282Z" style="fill: rgb(38, 50, 56); transform-origin: 159.386px 300.695px;" id="elceo3qv3xaa" class="animable"></path><path d="M115.47,318.8c-.06,0-.3-.77-.88-2.14s-1.51-3.31-2.75-5.66a55.23,55.23,0,0,1-3.87-8.55,19.72,19.72,0,0,1-1-5.49,17.93,17.93,0,0,1,.89-5.92,25.77,25.77,0,0,1,6-9.78,44.74,44.74,0,0,1,7.26-5.95c2.21-1.49,4.08-2.57,5.37-3.32l1.5-.84a3.32,3.32,0,0,1,.54-.26,2.17,2.17,0,0,1-.49.35l-1.45.93c-1.25.8-3.09,1.93-5.27,3.45a46.31,46.31,0,0,0-7.11,6,25.61,25.61,0,0,0-5.86,9.61,17.74,17.74,0,0,0-.87,5.75,19.34,19.34,0,0,0,.91,5.36,57.93,57.93,0,0,0,3.74,8.52,58.42,58.42,0,0,1,2.61,5.75,15.81,15.81,0,0,1,.54,1.64A3.57,3.57,0,0,1,115.47,318.8Z" style="fill: rgb(38, 50, 56); transform-origin: 117.748px 294.845px;" id="elubq347yqxt" class="animable"></path><path d="M338.14,268.53c-.15.76,5.3,41.54,10.87,42.69,2.56.52,7.54,1,7.54,1l2.88,8.14,31.11-9.3-5.53-19-6.21-28.27Z" style="fill: rgb(255, 190, 157); transform-origin: 364.339px 292.075px;" id="el6dzx4dkyb7h" class="animable"></path><path d="M387.91,254.86c-2.93-5-7.93-8.88-13.67-9.65-1.92-.25-3.88-.16-5.77-.55s-3.48-1.17-5.23-1.7c-4.23-1.3-8.78-1-13.18-.5a22.83,22.83,0,0,0-8.4,2.25,12.7,12.7,0,0,0-6.44,10.07,13.91,13.91,0,0,0,3.17,16l.52,1q.94,3.42,1.88,6.84a2.35,2.35,0,0,0,.44.93c.38,1.9.77,3.8,1.15,5.69.16.79.4,1.69,1.14,2,1,.48,2.2-.55,2.41-1.65a10.75,10.75,0,0,0-.33-3.32,2.81,2.81,0,0,1,1.11-2.95,1.54,1.54,0,0,1,.3-.11,8.13,8.13,0,0,1,4.38,3.93,17.24,17.24,0,0,1,1.05,2.69,11.09,11.09,0,0,1,.15,1.62c0,1.39-.18,2.89.55,4.09.63,1,3.22,4.81,4.42,4.93h0a35.08,35.08,0,0,0,8.36,5.88,26.29,26.29,0,0,0,7.68,3.07,10.56,10.56,0,0,0,8-1.39c2.08-1.45,3.32-3.79,4.37-6.08a62.57,62.57,0,0,0,6-26.67C391.91,265.64,390.84,259.8,387.91,254.86Z" style="fill: rgb(38, 50, 56); transform-origin: 362.959px 273.857px;" id="elhckk1yklk5m" class="animable"></path><path d="M363.66,290.43a4.8,4.8,0,0,1-2.35-.57,11.17,11.17,0,0,1-4.4-3.8,21.53,21.53,0,0,1-2.54-5.22,9.18,9.18,0,0,1-.65-2.3,12.24,12.24,0,0,1,1,2.17,27.18,27.18,0,0,0,2.63,5.05,12,12,0,0,0,4.14,3.77C362.76,290.2,363.68,290.34,363.66,290.43Z" style="fill: rgb(69, 90, 100); transform-origin: 358.69px 284.485px;" id="elz3ca75wrly" class="animable"></path><path d="M367.79,290.69a12,12,0,0,1-8.67-6.28,19.7,19.7,0,0,0,8.67,6.28Z" style="fill: rgb(69, 90, 100); transform-origin: 363.455px 287.55px;" id="elde00xe11faa" class="animable"></path><path d="M385.92,277.22a18.57,18.57,0,0,1-1.85,11.19c-.15-.06.78-2.44,1.28-5.54S385.76,277.22,385.92,277.22Z" style="fill: rgb(69, 90, 100); transform-origin: 385.086px 282.815px;" id="elvzk44cck2u" class="animable"></path><path d="M388,278.7a11.3,11.3,0,0,1-1.64,8.42c-.14-.07.69-1.82,1.14-4.15S387.82,278.71,388,278.7Z" style="fill: rgb(69, 90, 100); transform-origin: 387.281px 282.91px;" id="eld1qneoy2ub9" class="animable"></path><path d="M380.67,263.22c-.09,0,.07-1.46,0-3.78a15.77,15.77,0,0,0-2.71-8.47,10.37,10.37,0,0,0-3.66-3.22,9.39,9.39,0,0,0-3.86-1,10.81,10.81,0,0,0-3.66.63,2.87,2.87,0,0,1,.91-.49,7.59,7.59,0,0,1,2.76-.5,9.36,9.36,0,0,1,4.07.95,10.7,10.7,0,0,1,3.86,3.35,15.27,15.27,0,0,1,2.66,8.76,21.74,21.74,0,0,1-.14,2.78A3.74,3.74,0,0,1,380.67,263.22Z" style="fill: rgb(69, 90, 100); transform-origin: 373.911px 254.805px;" id="el7ecbtufgyao" class="animable"></path><path d="M380.06,250.34a6.1,6.1,0,0,1-1.41-1,18.45,18.45,0,0,0-3.4-2.28,8.29,8.29,0,0,0-3.9-.88c-1,.05-1.65.31-1.68.23a2.79,2.79,0,0,1,1.65-.59,7.44,7.44,0,0,1,4.16.77,14.27,14.27,0,0,1,3.42,2.47A5.68,5.68,0,0,1,380.06,250.34Z" style="fill: rgb(69, 90, 100); transform-origin: 374.865px 248.059px;" id="elnrf9qxv5gsb" class="animable"></path><path d="M377.66,270.14a43.18,43.18,0,0,0,.64-4.39,43,43,0,0,0-.31-4.42,10.26,10.26,0,0,1-.33,8.81Z" style="fill: rgb(69, 90, 100); transform-origin: 378.243px 265.735px;" id="ela34nkgcze9" class="animable"></path><path d="M373.67,270c-.13-.08.38-1,.58-2.26s0-2.29.19-2.32a4.13,4.13,0,0,1-.77,4.58Z" style="fill: rgb(69, 90, 100); transform-origin: 374.233px 267.71px;" id="el6myy26m7w1n" class="animable"></path><path d="M344.61,270.48a11.37,11.37,0,0,1-7.95-7.26,25.32,25.32,0,0,0,3.41,4.24A26,26,0,0,0,344.61,270.48Z" style="fill: rgb(69, 90, 100); transform-origin: 340.635px 266.85px;" id="elamp7mq8lp7v" class="animable"></path><path d="M348,271.5a13.24,13.24,0,0,1-3.92-2.92,13.37,13.37,0,0,1-3-3.86c.13-.09,1.46,1.63,3.37,3.49S348.07,271.37,348,271.5Z" style="fill: rgb(69, 90, 100); transform-origin: 344.541px 268.108px;" id="eld6mxfnwmmlw" class="animable"></path><path d="M353.62,274.48a40.28,40.28,0,0,1-3.43-3.61,38,38,0,0,1-3.35-3.69,17.76,17.76,0,0,1,3.73,3.34A17.58,17.58,0,0,1,353.62,274.48Z" style="fill: rgb(69, 90, 100); transform-origin: 350.23px 270.83px;" id="elts636a091n" class="animable"></path><path d="M357,277.21c-.14.06-1-2-2.39-4.36s-2.61-4.22-2.49-4.31a21.47,21.47,0,0,1,4.88,8.67Z" style="fill: rgb(69, 90, 100); transform-origin: 354.556px 272.876px;" id="el1yzenpnmn7l" class="animable"></path><path d="M341.74,258.93a5.71,5.71,0,0,1-.2-1.38,18.7,18.7,0,0,1,.09-3.8,10.32,10.32,0,0,1,7.8-9.07,16.14,16.14,0,0,1,6.9-.48,28.82,28.82,0,0,1,5.48,1.36c1.51.52,2.71,1,3.53,1.37a7,7,0,0,1,1.25.6,7.29,7.29,0,0,1-1.33-.41c-.84-.29-2.05-.73-3.57-1.21a30.15,30.15,0,0,0-5.42-1.23,16.12,16.12,0,0,0-6.69.49A10.13,10.13,0,0,0,342,253.8,39.25,39.25,0,0,0,341.74,258.93Z" style="fill: rgb(69, 90, 100); transform-origin: 354.036px 251.479px;" id="elb54puxv2kui" class="animable"></path><path d="M358.9,253.08a2.75,2.75,0,0,1,.3-1.4,7,7,0,0,1,2.07-2.75,7.15,7.15,0,0,1,3.12-1.45,2.66,2.66,0,0,1,1.42,0c0,.09-.53.13-1.34.37a8.29,8.29,0,0,0-2.87,1.5,8,8,0,0,0-2.07,2.5C359.14,252.58,359,253.1,358.9,253.08Z" style="fill: rgb(69, 90, 100); transform-origin: 362.353px 250.232px;" id="elp0d1vgbcwfo" class="animable"></path><path d="M169.88,385.56l8.86-10.87,18.1-5.82,24.45-1.05,26.34,6.62-7,18.88-19.5-7.11s-8.49,5.15-12.91,5.39-10,3.35-10,3.35l-1.31,6.7s-2.9,1.47-3.39,0a67.11,67.11,0,0,1-1-7.84l4.37-4.88-8.63,6.59-4.56,6.79s-4.65.08-3.31-2.86,3.55-7.6,3.55-7.6l6.13-6.79-7.28,5.16-5.07,8.07s-4.56.81-3.65-2a61.67,61.67,0,0,1,3-7.34l3.54-4.72,4.55-4-4.78,1.14S174.63,390.25,169.88,385.56Z" style="fill: rgb(255, 190, 157); transform-origin: 208.755px 385.065px;" id="elg1avkhggsb" class="animable"></path><path d="M226,368,224,391.39l69,9.83a14.06,14.06,0,0,0,6.41-.47l61.83-25.16s4.49-30.23-15.14-37.66c-13.23-5-21.48,12.57-31.12,18.89A103.3,103.3,0,0,1,291.37,368Z" style="fill: rgb(94, 166, 255); transform-origin: 292.841px 369.22px;" id="elhlu1n5jdx9l" class="animable"></path><path d="M337.15,337.93l22.28-17.57,31.11-9.3s23,7.35,28.29,10.35c6.88,4,16.23,15.24,19.18,31.82a149.41,149.41,0,0,1,2.36,25.14l-84.43,0Z" style="fill: rgb(94, 166, 255); transform-origin: 388.76px 344.715px;" id="elodslto4ipoo" class="animable"></path><path d="M356.51,358.9c-.1,0-.26-1.53-1-3.88a24.7,24.7,0,0,0-1.74-4,25,25,0,0,0-6.91-7.95,24.89,24.89,0,0,0-3.68-2.29c-2.21-1.11-3.71-1.51-3.68-1.61a4.54,4.54,0,0,1,1.06.24,7.89,7.89,0,0,1,1.21.39,14.29,14.29,0,0,1,1.57.65,21.85,21.85,0,0,1,3.8,2.23,25.74,25.74,0,0,1,4,3.65,26.32,26.32,0,0,1,3.06,4.46,22.34,22.34,0,0,1,1.67,4.09,15.08,15.08,0,0,1,.41,1.64,8,8,0,0,1,.21,1.26A4.08,4.08,0,0,1,356.51,358.9Z" style="fill: rgb(38, 50, 56); transform-origin: 348.019px 349.035px;" id="el60237pnoxzg" class="animable"></path><path d="M409.7,339.53a9.85,9.85,0,0,1-.52,1.54c-.36,1-.91,2.4-1.6,4.14-1.39,3.48-3.38,8.25-5.7,13.48s-4.51,9.92-6.15,13.28c-.82,1.69-1.5,3-2,4a10.47,10.47,0,0,1-.8,1.43,9.53,9.53,0,0,1,.62-1.51c.46-1,1.08-2.4,1.83-4,1.55-3.41,3.69-8.12,6-13.34s4.35-10,5.83-13.41c.71-1.66,1.31-3,1.76-4.07A9.79,9.79,0,0,1,409.7,339.53Z" style="fill: rgb(38, 50, 56); transform-origin: 401.315px 358.465px;" id="elvshv8058q8g" class="animable"></path><path d="M327.22,389.42c-.11,0,.3-2,.13-5.33A30,30,0,0,0,324,371.81a28.26,28.26,0,0,0-12.14-13.13s.12,0,.35.12.57.22,1,.44a19.11,19.11,0,0,1,3.3,2.15,31.55,31.55,0,0,1,8,10.18,28.82,28.82,0,0,1,3.27,12.5,25.29,25.29,0,0,1-.21,3.93A7.1,7.1,0,0,1,327.22,389.42Z" style="fill: rgb(255, 255, 255); transform-origin: 319.824px 374.05px;" id="el272144hx5qo" class="animable"></path><path d="M332.15,387.41c-.11,0,.05-2.07-.26-5.36a35.61,35.61,0,0,0-3.59-12.33,35,35,0,0,0-3.84-6,33,33,0,0,0-4-4.16c-2.52-2.15-4.34-3.15-4.28-3.24a7.6,7.6,0,0,1,1.28.68,12.27,12.27,0,0,1,1.43.92,19.37,19.37,0,0,1,1.8,1.36,31,31,0,0,1,4.18,4.13,33.79,33.79,0,0,1,3.94,6A33.26,33.26,0,0,1,332.25,382a28.4,28.4,0,0,1,.05,4A7.05,7.05,0,0,1,332.15,387.41Z" style="fill: rgb(255, 255, 255); transform-origin: 324.263px 371.865px;" id="elrwz3mtvke07" class="animable"></path><g id="eljg9jg6ywji"><g style="opacity: 0.3; transform-origin: 401.8px 360.107px;" class="animable"><path d="M408.63,342.35c0,10.92-3.17,20.73-6.86,31a7.91,7.91,0,0,1-2.33,3.85c-1.21.92-3.23.95-4.06-.33s-.23-2.66.31-3.92l12.94-30.6" id="elo579bffxbgb" class="animable" style="transform-origin: 401.8px 360.107px;"></path></g></g></g><defs>     <filter id="active" height="200%">         <feMorphology in="SourceAlpha" result="DILATED" operator="dilate" radius="2"></feMorphology>                <feFlood flood-color="#32DFEC" flood-opacity="1" result="PINK"></feFlood>        <feComposite in="PINK" in2="DILATED" operator="in" result="OUTLINE"></feComposite>        <feMerge>            <feMergeNode in="OUTLINE"></feMergeNode>            <feMergeNode in="SourceGraphic"></feMergeNode>        </feMerge>    </filter>    <filter id="hover" height="200%">        <feMorphology in="SourceAlpha" result="DILATED" operator="dilate" radius="2"></feMorphology>                <feFlood flood-color="#ff0000" flood-opacity="0.5" result="PINK"></feFlood>        <feComposite in="PINK" in2="DILATED" operator="in" result="OUTLINE"></feComposite>        <feMerge>            <feMergeNode in="OUTLINE"></feMergeNode>            <feMergeNode in="SourceGraphic"></feMergeNode>        </feMerge>            <feColorMatrix type="matrix" values="0   0   0   0   0                0   1   0   0   0                0   0   0   0   0                0   0   0   1   0 "></feColorMatrix>    </filter></defs></svg>